<?xml version="1.0" encoding="UTF-8"?>
<!DOCTYPE svg PUBLIC "-//W3C//DTD SVG 1.1//EN" "http://www.w3.org/Graphics/SVG/1.1/DTD/svg11.dtd">
<svg xmlns="http://www.w3.org/2000/svg" version="1.1" width="246px" height="256px" style="shape-rendering:geometricPrecision; text-rendering:geometricPrecision; image-rendering:optimizeQuality; fill-rule:evenodd; clip-rule:evenodd" xmlns:xlink="http://www.w3.org/1999/xlink">
<g><path style="opacity:1" fill="#0d0d0d" d="M -0.5,-0.5 C 81.5,-0.5 163.5,-0.5 245.5,-0.5C 245.5,84.8333 245.5,170.167 245.5,255.5C 163.5,255.5 81.5,255.5 -0.5,255.5C -0.5,170.167 -0.5,84.8333 -0.5,-0.5 Z"/></g>
<g><path style="opacity:1" fill="#9e9e9e" d="M 49.5,8.5 C 55.9983,8.08152 62.3316,8.74819 68.5,10.5C 68.6641,13.1873 68.4974,15.854 68,18.5C 62.0745,9.13534 55.0745,8.13534 47,15.5C 44.8289,22.2799 45.1622,28.9465 48,35.5C 56.1036,42.7005 63.2702,41.7005 69.5,32.5C 69.8333,32.8333 70.1667,33.1667 70.5,33.5C 69.3052,35.7513 68.3052,38.0846 67.5,40.5C 56.8177,44.7709 47.651,42.7709 40,34.5C 35.1535,22.8706 38.3202,14.204 49.5,8.5 Z"/></g>
<g><path style="opacity:1" fill="#a1a1a1" d="M 87.5,8.5 C 98.9029,6.3349 107.07,10.3349 112,20.5C 112.285,36.9772 104.118,44.1438 87.5,42C 75.179,36.3671 72.0124,27.5338 78,15.5C 80.7901,12.535 83.9567,10.2016 87.5,8.5 Z"/></g>
<g><path style="opacity:1" fill="#a0a0a0" d="M 191.5,8.5 C 196.193,8.54011 200.859,8.87344 205.5,9.5C 205.972,15.636 204.639,16.4694 201.5,12C 198.97,10.5783 196.303,10.245 193.5,11C 192.424,12.7261 192.257,14.5594 193,16.5C 196.815,20.0716 200.815,23.4049 205,26.5C 209.369,33.5183 207.869,38.685 200.5,42C 195.816,42.4614 191.149,42.2947 186.5,41.5C 186.192,39.076 186.526,36.7427 187.5,34.5C 189.04,36.3868 190.707,38.2201 192.5,40C 199.49,42.0051 202.324,39.5051 201,32.5C 196.667,28.8333 192.333,25.1667 188,21.5C 185.325,16.011 186.492,11.6776 191.5,8.5 Z"/></g>
<g><path style="opacity:1" fill="#a3a3a3" d="M 140.5,9.5 C 140.802,12.0593 140.468,14.3926 139.5,16.5C 139.67,15.1779 139.337,14.0113 138.5,13C 135.183,12.5017 131.85,12.335 128.5,12.5C 128.5,16.1667 128.5,19.8333 128.5,23.5C 132.607,24.1504 136.107,23.1504 139,20.5C 139.667,23.8333 139.667,27.1667 139,30.5C 138.535,29.0692 137.701,27.9025 136.5,27C 133.854,26.5026 131.187,26.3359 128.5,26.5C 128.334,30.5138 128.501,34.5138 129,38.5C 135.844,41.3151 140.511,39.3151 143,32.5C 143.044,35.4752 142.877,38.4752 142.5,41.5C 133.318,41.8266 124.318,41.4933 115.5,40.5C 117.467,40.7394 119.301,40.4061 121,39.5C 121.667,30.5 121.667,21.5 121,12.5C 119.829,11.1068 118.329,10.2735 116.5,10C 124.493,9.50029 132.493,9.33362 140.5,9.5 Z"/></g>
<g><path style="opacity:1" fill="#a5a5a5" d="M 146.5,10.5 C 151.316,9.35034 156.316,9.18368 161.5,10C 159.671,10.2735 158.171,11.1068 157,12.5C 156.333,19.1667 156.333,25.8333 157,32.5C 160.182,39.4978 165.349,41.3311 172.5,38C 174.487,36.6811 175.654,34.8477 176,32.5C 176.667,25.8333 176.667,19.1667 176,12.5C 174.829,11.1068 173.329,10.2735 171.5,10C 175.5,9.33333 179.5,9.33333 183.5,10C 182.234,10.3095 181.067,10.8095 180,11.5C 179.667,18.5 179.333,25.5 179,32.5C 177.045,39.9483 172.212,43.2816 164.5,42.5C 158.501,42.8994 154.001,40.5661 151,35.5C 150.667,27.8333 150.333,20.1667 150,12.5C 149.184,11.1772 148.017,10.5106 146.5,10.5 Z"/></g>
<g><path style="opacity:1" fill="#111111" d="M 89.5,10.5 C 97.1536,9.98811 102.32,13.3214 105,20.5C 106.999,28.8514 104.499,35.3514 97.5,40C 88.5426,40.722 83.3759,36.5553 82,27.5C 80.7416,20.0891 83.2416,14.4225 89.5,10.5 Z"/></g>
<g><path style="opacity:1" fill="#686868" d="M 140.5,9.5 C 141.8,12.0241 141.8,14.6908 140.5,17.5C 139.893,17.3764 139.56,17.0431 139.5,16.5C 140.468,14.3926 140.802,12.0593 140.5,9.5 Z"/></g>
<g><path style="opacity:1" fill="#595959" d="M 115.5,40.5 C 124.318,41.4933 133.318,41.8266 142.5,41.5C 133.325,42.8222 123.992,42.8222 114.5,41.5C 114.624,40.8933 114.957,40.56 115.5,40.5 Z"/></g>
<g><path style="opacity:1" fill="#1c1d20" d="M 101.5,57.5 C 102.568,56.5655 103.901,56.2322 105.5,56.5C 105.215,58.288 105.548,59.9547 106.5,61.5C 108.756,60.5791 109.756,58.9124 109.5,56.5C 111.766,56.1412 113.599,56.8078 115,58.5C 116.698,57.267 118.698,56.6004 121,56.5C 125.037,57.5367 129.037,57.5367 133,56.5C 135.156,56.7551 137.156,57.4218 139,58.5C 142.027,55.8338 144.86,55.8338 147.5,58.5C 146.317,59.5045 144.984,60.3378 143.5,61C 145.715,61.1705 147.715,61.8372 149.5,63C 147.232,63.2183 145.232,64.0516 143.5,65.5C 139.44,65.4847 135.44,65.9847 131.5,67C 128.894,67.7918 126.894,69.2918 125.5,71.5C 122.334,79.2135 118.834,86.8802 115,94.5C 113.951,96.6175 112.451,98.2842 110.5,99.5C 108.908,98.3984 108.075,99.065 108,101.5C 105.002,103.333 102.502,105.666 100.5,108.5C 95.5604,114.039 91.8937,120.373 89.5,127.5C 88.8826,127.389 88.3826,127.056 88,126.5C 87.1034,129.292 85.9367,131.959 84.5,134.5C 83.914,134.291 83.414,133.957 83,133.5C 82.3333,131.5 82.3333,129.5 83,127.5C 85.5711,125.024 87.0711,122.024 87.5,118.5C 87.3505,117.448 87.5172,116.448 88,115.5C 90.3745,113.461 92.3745,111.128 94,108.5C 96.0045,103.785 98.0045,99.1188 100,94.5C 102.879,92.695 105.712,91.0283 108.5,89.5C 110.944,85.8818 113.61,82.3818 116.5,79C 116.043,78.586 115.709,78.086 115.5,77.5C 117.557,71.3254 120.557,65.6588 124.5,60.5C 124,60.1667 123.5,59.8333 123,59.5C 120.597,61.9826 118.264,61.9826 116,59.5C 116.695,64.6302 114.529,67.6302 109.5,68.5C 111.171,70.5098 111.838,72.8431 111.5,75.5C 111.5,76.1667 111.167,76.5 110.5,76.5C 109.504,76.5858 108.671,76.2524 108,75.5C 107.252,73.6675 106.252,72.0009 105,70.5C 105.813,66.158 105.646,61.8246 104.5,57.5C 103.5,57.5 102.5,57.5 101.5,57.5 Z"/></g>
<g><path style="opacity:1" fill="#3c3e43" d="M 169.5,150.5 C 166.661,152.038 163.661,151.705 160.5,149.5C 161.575,145.062 159.908,143.062 155.5,143.5C 156.08,141.251 157.413,139.585 159.5,138.5C 157.709,141.064 158.376,142.731 161.5,143.5C 162.107,143.376 162.44,143.043 162.5,142.5C 166.66,141.745 168.993,139.245 169.5,135C 169.293,133.05 168.293,131.884 166.5,131.5C 167.29,130.206 168.29,129.039 169.5,128C 168.572,127.612 167.905,126.945 167.5,126C 168.666,122.472 168.499,118.972 167,115.5C 166.667,118.5 166.333,121.5 166,124.5C 165.333,125.833 164.667,125.833 164,124.5C 163.212,126.165 162.878,127.831 163,129.5C 167.199,125.546 167.699,126.212 164.5,131.5C 163.504,131.586 162.671,131.252 162,130.5C 160.391,133.407 158.558,136.073 156.5,138.5C 156.355,133.632 156.855,128.632 158,123.5C 158.667,124.833 159.333,124.833 160,123.5C 160.419,124.672 161.085,125.672 162,126.5C 162.617,125.551 162.451,124.718 161.5,124C 163.405,123.174 163.739,122.007 162.5,120.5C 161.522,120.977 160.689,121.643 160,122.5C 159.22,120.613 159.387,118.946 160.5,117.5C 162.233,116.992 162.566,116.159 161.5,115C 162.126,114.25 162.626,113.416 163,112.5C 163.333,112.833 163.667,113.167 164,113.5C 164.346,111.782 164.846,110.115 165.5,108.5C 165.291,107.914 164.957,107.414 164.5,107C 166.584,106.303 168.251,105.136 169.5,103.5C 170.806,112.302 170.806,105.635 169.5,83.5C 169.245,80.9837 168.411,78.6504 167,76.5C 166.48,78.2889 166.813,79.9556 168,81.5C 168.667,86.8333 168.667,92.1667 168,97.5C 166.074,90.6911 164.741,83.6911 164,76.5C 163.692,73.53 162.192,71.53 159.5,70.5C 158.833,70.5 158.167,70.5 157.5,70.5C 154.689,67.7004 155.189,67.0338 159,68.5C 159.317,66.6992 159.984,66.3659 161,67.5C 160.981,65.8925 160.815,64.2259 160.5,62.5C 157.19,62.539 154.524,61.2057 152.5,58.5C 152.624,57.8933 152.957,57.56 153.5,57.5C 154.566,58.6921 155.399,58.3588 156,56.5C 157.668,60.2372 159.001,60.2372 160,56.5C 160.741,57.6405 161.575,57.6405 162.5,56.5C 163.223,59.0698 164.39,61.4032 166,63.5C 166.333,61.1667 166.667,58.8333 167,56.5C 167.794,59.4715 168.461,62.4715 169,65.5C 169.179,62.4465 169.679,59.4465 170.5,56.5C 170.833,72.1667 171.167,87.8333 171.5,103.5C 171.499,119.515 170.833,135.181 169.5,150.5 Z"/></g>
<g><path style="opacity:1" fill="#75777c" d="M 143.5,65.5 C 145.158,66.1814 146.825,67.0147 148.5,68C 147.892,68.8699 147.059,69.3699 146,69.5C 144.044,69.3393 142.044,69.0059 140,68.5C 140.305,70.4432 140.305,72.4432 140,74.5C 139.275,76.158 138.108,76.658 136.5,76C 138.007,75.1627 138.507,73.9961 138,72.5C 136.355,72.6932 134.521,72.8598 132.5,73C 134.107,74.049 134.773,75.549 134.5,77.5C 133.292,76.7659 131.959,76.4326 130.5,76.5C 130.918,75.7784 131.584,75.2784 132.5,75C 131.167,74.3333 129.833,74.3333 128.5,75C 126.578,76.46 125.911,78.1267 126.5,80C 127.928,81.9162 128.928,84.0829 129.5,86.5C 130.182,85.7573 130.849,85.0906 131.5,84.5C 131.557,85.609 131.89,86.609 132.5,87.5C 132.918,88.2216 133.584,88.7216 134.5,89C 132.068,90.0875 132.402,90.5875 135.5,90.5C 134.385,92.455 133.052,94.2884 131.5,96C 134.421,95.6201 137.088,94.4534 139.5,92.5C 139.288,94.3841 138.288,95.7174 136.5,96.5C 138.656,97.5579 139.656,98.8913 139.5,100.5C 139.631,101.239 139.464,101.906 139,102.5C 136.667,102.167 134.333,101.833 132,101.5C 131.193,105.449 130.693,105.449 130.5,101.5C 127.402,101.413 127.068,101.913 129.5,103C 126.266,104.967 123.933,104.134 122.5,100.5C 124.06,98.8706 123.727,97.704 121.5,97C 121.745,94.9114 121.745,92.9114 121.5,91C 120.718,83.1797 123.384,76.8464 129.5,72C 128.207,71.51 126.873,71.3433 125.5,71.5C 126.894,69.2918 128.894,67.7918 131.5,67C 135.44,65.9847 139.44,65.4847 143.5,65.5 Z"/></g>
<g><path style="opacity:1" fill="#505156" d="M 147.5,58.5 C 151.072,60.236 154.739,62.5693 158.5,65.5C 157.833,65.8333 157.167,66.1667 156.5,66.5C 153.851,64.2438 151.184,64.0771 148.5,66C 151.21,67.0152 153.543,68.5152 155.5,70.5C 154.271,71.2811 152.938,71.7811 151.5,72C 151.833,72.3333 152.167,72.6667 152.5,73C 151.058,73.3768 150.058,74.2101 149.5,75.5C 147.533,77.3039 145.699,79.3039 144,81.5C 141.904,80.2845 142.071,79.4512 144.5,79C 143.309,78.3021 142.309,77.4687 141.5,76.5C 140.527,78.9479 140.194,81.6146 140.5,84.5C 139.211,81.6085 137.211,79.2752 134.5,77.5C 134.773,75.549 134.107,74.049 132.5,73C 134.521,72.8598 136.355,72.6932 138,72.5C 138.507,73.9961 138.007,75.1627 136.5,76C 138.108,76.658 139.275,76.158 140,74.5C 140.305,72.4432 140.305,70.4432 140,68.5C 142.044,69.0059 144.044,69.3393 146,69.5C 147.059,69.3699 147.892,68.8699 148.5,68C 146.825,67.0147 145.158,66.1814 143.5,65.5C 145.232,64.0516 147.232,63.2183 149.5,63C 147.715,61.8372 145.715,61.1705 143.5,61C 144.984,60.3378 146.317,59.5045 147.5,58.5 Z"/></g>
<g><path style="opacity:1" fill="#74757a" d="M 149.5,75.5 C 150.552,75.3505 151.552,75.5172 152.5,76C 147.617,78.3693 144.95,82.2027 144.5,87.5C 144.466,90.1985 145.133,92.6985 146.5,95C 146.272,95.3988 145.938,95.5654 145.5,95.5C 144.5,95.1667 143.833,94.5 143.5,93.5C 142.543,87.8841 141.876,82.2174 141.5,76.5C 142.309,77.4687 143.309,78.3021 144.5,79C 142.071,79.4512 141.904,80.2845 144,81.5C 145.699,79.3039 147.533,77.3039 149.5,75.5 Z"/></g>
<g><path style="opacity:1" fill="#9ea0a6" d="M 130.5,76.5 C 131.959,76.4326 133.292,76.7659 134.5,77.5C 137.211,79.2752 139.211,81.6085 140.5,84.5C 140.599,87.2372 140.265,89.9039 139.5,92.5C 137.088,94.4534 134.421,95.6201 131.5,96C 133.052,94.2884 134.385,92.455 135.5,90.5C 137.326,88.5449 137.826,86.2116 137,83.5C 133.926,81.9292 131.76,79.5958 130.5,76.5 Z"/></g>
<g><path style="opacity:1" fill="#505156" d="M 130.5,76.5 C 131.76,79.5958 133.926,81.9292 137,83.5C 137.826,86.2116 137.326,88.5449 135.5,90.5C 132.402,90.5875 132.068,90.0875 134.5,89C 133.584,88.7216 132.918,88.2216 132.5,87.5C 134.103,87.6882 135.437,87.1882 136.5,86C 135.095,84.7308 133.429,84.2308 131.5,84.5C 130.849,85.0906 130.182,85.7573 129.5,86.5C 128.928,84.0829 127.928,81.9162 126.5,80C 125.911,78.1267 126.578,76.46 128.5,75C 129.833,74.3333 131.167,74.3333 132.5,75C 131.584,75.2784 130.918,75.7784 130.5,76.5 Z"/></g>
<g><path style="opacity:1" fill="#38393e" d="M 93.5,77.5 C 91.4714,79.0207 90.6381,81.0207 91,83.5C 91.6667,84.8333 92.3333,84.8333 93,83.5C 93.1981,81.6183 93.6981,79.9516 94.5,78.5C 95.1174,78.6107 95.6174,78.944 96,79.5C 96.199,82.7223 97.0324,85.7223 98.5,88.5C 97.8333,89.8333 97.1667,91.1667 96.5,92.5C 95.5,92.8333 94.8333,93.5 94.5,94.5C 93.7784,94.9175 93.2784,95.5842 93,96.5C 92.79,94.9419 92.29,93.6085 91.5,92.5C 90.6862,90.369 90.1862,88.0356 90,85.5C 88.7453,86.2106 87.5786,87.044 86.5,88C 87.87,89.4413 88.87,91.108 89.5,93C 88.0894,95.9965 87.0894,99.1631 86.5,102.5C 85.265,103.34 84.265,104.34 83.5,105.5C 83.838,102.843 83.1713,100.51 81.5,98.5C 82.8483,93.3874 83.6816,93.7207 84,99.5C 84.6667,100.167 85.3333,100.833 86,101.5C 86.2649,99.8374 85.7649,98.3374 84.5,97C 85.3081,96.6924 85.9747,96.1924 86.5,95.5C 85.7366,94.2807 84.7366,93.2807 83.5,92.5C 84.0253,91.8076 84.6919,91.3076 85.5,91C 83.9963,89.5093 83.1629,87.676 83,85.5C 82.51,86.7932 82.3433,88.1266 82.5,89.5C 81.5,89.5 80.5,89.5 79.5,89.5C 81.3225,86.1691 82.3225,82.5024 82.5,78.5C 82.8333,78.5 83.1667,78.5 83.5,78.5C 84.5498,78.9046 84.5498,79.5712 83.5,80.5C 84.2421,81.2868 85.0754,81.9535 86,82.5C 87.0589,78.142 89.5589,76.4754 93.5,77.5 Z"/></g>
<g><path style="opacity:1" fill="#191a1d" d="M 131.5,84.5 C 133.429,84.2308 135.095,84.7308 136.5,86C 135.437,87.1882 134.103,87.6882 132.5,87.5C 131.89,86.609 131.557,85.609 131.5,84.5 Z"/></g>
<g><path style="opacity:1" fill="#212226" d="M 153.5,57.5 C 152.957,57.56 152.624,57.8933 152.5,58.5C 154.524,61.2057 157.19,62.539 160.5,62.5C 160.815,64.2259 160.981,65.8925 161,67.5C 159.984,66.3659 159.317,66.6992 159,68.5C 155.189,67.0338 154.689,67.7004 157.5,70.5C 156.957,70.56 156.624,70.8933 156.5,71.5C 159.248,74.6607 160.581,78.3274 160.5,82.5C 158.847,83.6045 157.18,83.7712 155.5,83C 154.663,84.0113 154.33,85.1779 154.5,86.5C 153.163,87.3149 152.163,88.4815 151.5,90C 150.552,90.4828 149.552,90.6495 148.5,90.5C 148.719,91.675 148.386,92.675 147.5,93.5C 146.482,91.4061 145.482,89.4061 144.5,87.5C 144.95,82.2027 147.617,78.3693 152.5,76C 151.552,75.5172 150.552,75.3505 149.5,75.5C 150.058,74.2101 151.058,73.3768 152.5,73C 152.167,72.6667 151.833,72.3333 151.5,72C 152.938,71.7811 154.271,71.2811 155.5,70.5C 153.543,68.5152 151.21,67.0152 148.5,66C 151.184,64.0771 153.851,64.2438 156.5,66.5C 157.167,66.1667 157.833,65.8333 158.5,65.5C 154.739,62.5693 151.072,60.236 147.5,58.5C 148.8,57.8921 150.133,57.2255 151.5,56.5C 152.416,56.5427 153.083,56.8761 153.5,57.5 Z"/></g>
<g><path style="opacity:1" fill="#8a8c92" d="M 96.5,92.5 C 97.1667,91.1667 97.8333,89.8333 98.5,88.5C 100.109,85.8511 100.943,82.8511 101,79.5C 101.333,80.1667 101.667,80.8333 102,81.5C 102.399,81.2716 102.565,80.9382 102.5,80.5C 103.302,79.0484 103.802,77.3817 104,75.5C 108.07,79.5839 108.07,83.5839 104,87.5C 103.667,87.1667 103.333,86.8333 103,86.5C 102.506,88.1341 102.34,89.8008 102.5,91.5C 100.278,91.178 98.4443,91.8446 97,93.5C 96.6012,93.2716 96.4346,92.9382 96.5,92.5 Z"/></g>
<g><path style="opacity:1" fill="#53565c" d="M 101.5,57.5 C 102.5,57.5 103.5,57.5 104.5,57.5C 105.646,61.8246 105.813,66.158 105,70.5C 106.252,72.0009 107.252,73.6675 108,75.5C 108.671,76.2524 109.504,76.5858 110.5,76.5C 110.238,77.9778 110.571,79.3112 111.5,80.5C 111.833,80.3333 112.167,80.1667 112.5,80C 113.591,77.9361 113.758,75.7695 113,73.5C 112.722,74.4158 112.222,75.0825 111.5,75.5C 111.838,72.8431 111.171,70.5098 109.5,68.5C 114.529,67.6302 116.695,64.6302 116,59.5C 118.264,61.9826 120.597,61.9826 123,59.5C 123.5,59.8333 124,60.1667 124.5,60.5C 120.557,65.6588 117.557,71.3254 115.5,77.5C 115.709,78.086 116.043,78.586 116.5,79C 113.61,82.3818 110.944,85.8818 108.5,89.5C 105.712,91.0283 102.879,92.695 100,94.5C 98.0045,99.1188 96.0045,103.785 94,108.5C 92.3745,111.128 90.3745,113.461 88,115.5C 87.5172,116.448 87.3505,117.448 87.5,118.5C 84.5024,120.248 82.6691,122.915 82,126.5C 81.0269,123.082 80.8603,119.748 81.5,116.5C 82.8175,114.249 84.4842,112.249 86.5,110.5C 87.212,111.739 88.212,112.239 89.5,112C 91.7384,109.896 92.7384,107.562 92.5,105C 94.078,102.518 95.4113,99.851 96.5,97C 95.9341,96.0053 95.2674,95.172 94.5,94.5C 94.8333,93.5 95.5,92.8333 96.5,92.5C 96.4346,92.9382 96.6012,93.2716 97,93.5C 98.4443,91.8446 100.278,91.178 102.5,91.5C 102.34,89.8008 102.506,88.1341 103,86.5C 103.333,86.8333 103.667,87.1667 104,87.5C 108.07,83.5839 108.07,79.5839 104,75.5C 103.802,77.3817 103.302,79.0484 102.5,80.5C 102.888,75.3722 102.388,70.3722 101,65.5C 97.5493,60.8701 93.8826,60.5367 90,64.5C 88.0858,63.324 88.2524,62.324 90.5,61.5C 88.5128,59.6726 86.1795,58.6726 83.5,58.5C 82.5266,58.0133 81.5266,57.5133 80.5,57C 83.9514,56.5269 87.2848,57.0269 90.5,58.5C 91.2164,57.689 92.0497,57.0223 93,56.5C 95.1124,57.608 96.9458,59.108 98.5,61C 99.448,61.4828 100.448,61.6495 101.5,61.5C 101.5,60.1667 101.5,58.8333 101.5,57.5 Z"/></g>
<g><path style="opacity:1" fill="#86898f" d="M 110.5,76.5 C 111.167,76.5 111.5,76.1667 111.5,75.5C 112.222,75.0825 112.722,74.4158 113,73.5C 113.758,75.7695 113.591,77.9361 112.5,80C 112.167,80.1667 111.833,80.3333 111.5,80.5C 110.571,79.3112 110.238,77.9778 110.5,76.5 Z"/></g>
<g><path style="opacity:1" fill="#4c4e53" d="M 160.5,82.5 C 160.5,84.8333 160.5,87.1667 160.5,89.5C 158.557,90.0783 158.223,91.0783 159.5,92.5C 158.782,96.7156 156.782,100.049 153.5,102.5C 151.838,101.169 150.171,99.8357 148.5,98.5C 148.894,96.4702 149.227,94.1369 149.5,91.5C 153.151,91.8383 154.817,90.1716 154.5,86.5C 154.33,85.1779 154.663,84.0113 155.5,83C 157.18,83.7712 158.847,83.6045 160.5,82.5 Z"/></g>
<g><path style="opacity:1" fill="#27292d" d="M 159.5,70.5 C 162.192,71.53 163.692,73.53 164,76.5C 164.741,83.6911 166.074,90.6911 168,97.5C 168.667,92.1667 168.667,86.8333 168,81.5C 166.813,79.9556 166.48,78.2889 167,76.5C 168.411,78.6504 169.245,80.9837 169.5,83.5C 169.74,89.227 169.407,94.8936 168.5,100.5C 167.778,100.082 167.278,99.4158 167,98.5C 166.333,101.167 165.667,101.167 165,98.5C 164.333,99.5 164.333,100.5 165,101.5C 165.667,102.833 166.333,102.833 167,101.5C 167.658,103.108 167.158,104.275 165.5,105C 163.658,104.932 161.991,105.099 160.5,105.5C 164.628,93.7475 164.294,82.0808 159.5,70.5 Z"/></g>
<g><path style="opacity:1" fill="#96989d" d="M 125.5,71.5 C 126.873,71.3433 128.207,71.51 129.5,72C 123.384,76.8464 120.718,83.1797 121.5,91C 121.745,92.9114 121.745,94.9114 121.5,97C 123.727,97.704 124.06,98.8706 122.5,100.5C 121.282,101.161 119.949,101.828 118.5,102.5C 119.09,103.799 120.09,104.632 121.5,105C 120.072,105.579 118.738,105.412 117.5,104.5C 117.628,102.345 117.128,100.345 116,98.5C 114.566,100.136 112.733,101.136 110.5,101.5C 109.537,101.03 109.537,100.363 110.5,99.5C 112.451,98.2842 113.951,96.6175 115,94.5C 118.834,86.8802 122.334,79.2135 125.5,71.5 Z"/></g>
<g><path style="opacity:1" fill="#5d5f64" d="M 83.5,105.5 C 83.5,106.167 83.5,106.833 83.5,107.5C 81.5881,106.02 80.4215,104.02 80,101.5C 79.6012,101.728 79.4346,102.062 79.5,102.5C 78.3054,102.134 77.6387,101.301 77.5,100C 78.2364,97.8606 79.2364,95.8606 80.5,94C 79.5,93.6667 78.5,93.3333 77.5,93C 78.305,91.8873 78.9717,90.7206 79.5,89.5C 80.5,89.5 81.5,89.5 82.5,89.5C 82.3433,88.1266 82.51,86.7932 83,85.5C 83.1629,87.676 83.9963,89.5093 85.5,91C 84.6919,91.3076 84.0253,91.8076 83.5,92.5C 84.7366,93.2807 85.7366,94.2807 86.5,95.5C 85.9747,96.1924 85.3081,96.6924 84.5,97C 85.7649,98.3374 86.2649,99.8374 86,101.5C 85.3333,100.833 84.6667,100.167 84,99.5C 83.6816,93.7207 82.8483,93.3874 81.5,98.5C 83.1713,100.51 83.838,102.843 83.5,105.5 Z"/></g>
<g><path style="opacity:1" fill="#67696f" d="M 169.5,83.5 C 170.806,105.635 170.806,112.302 169.5,103.5C 169.443,102.391 169.11,101.391 168.5,100.5C 169.407,94.8936 169.74,89.227 169.5,83.5 Z"/></g>
<g><path style="opacity:1" fill="#1d1e21" d="M 83.5,58.5 C 86.1795,58.6726 88.5128,59.6726 90.5,61.5C 88.2524,62.324 88.0858,63.324 90,64.5C 93.8826,60.5367 97.5493,60.8701 101,65.5C 102.388,70.3722 102.888,75.3722 102.5,80.5C 102.565,80.9382 102.399,81.2716 102,81.5C 101.667,80.8333 101.333,80.1667 101,79.5C 100.943,82.8511 100.109,85.8511 98.5,88.5C 97.0324,85.7223 96.199,82.7223 96,79.5C 95.6174,78.944 95.1174,78.6107 94.5,78.5C 94.5,77.8333 94.1667,77.5 93.5,77.5C 89.5589,76.4754 87.0589,78.142 86,82.5C 85.0754,81.9535 84.2421,81.2868 83.5,80.5C 84.5498,79.5712 84.5498,78.9046 83.5,78.5C 83.2114,75.3508 83.7114,72.3508 85,69.5C 85.5556,71.5951 86.0556,71.7618 86.5,70C 86.0464,67.9636 85.2131,66.1303 84,64.5C 78.2201,68.1674 77.2201,72.834 81,78.5C 81.69,77.2617 82.19,77.2617 82.5,78.5C 82.3225,82.5024 81.3225,86.1691 79.5,89.5C 78.9717,90.7206 78.305,91.8873 77.5,93C 78.5,93.3333 79.5,93.6667 80.5,94C 79.2364,95.8606 78.2364,97.8606 77.5,100C 77.6387,101.301 78.3054,102.134 79.5,102.5C 79.8885,107.219 80.5551,111.886 81.5,116.5C 79.9081,115.398 79.0748,116.065 79,118.5C 78.6643,123.532 78.1643,128.532 77.5,133.5C 76.2651,131.983 76.2651,130.316 77.5,128.5C 75.3285,124.764 75.3285,120.93 77.5,117C 77.3865,115.72 76.7199,114.887 75.5,114.5C 75.1667,111.333 74.8333,108.167 74.5,105C 74.4267,88.8656 74.7601,72.6989 75.5,56.5C 76.7661,58.7098 78.2661,60.7098 80,62.5C 81.4021,61.3551 82.5688,60.0217 83.5,58.5 Z"/></g>
<g><path style="opacity:1" fill="#696a6f" d="M 93.5,77.5 C 94.1667,77.5 94.5,77.8333 94.5,78.5C 93.6981,79.9516 93.1981,81.6183 93,83.5C 92.3333,84.8333 91.6667,84.8333 91,83.5C 90.6381,81.0207 91.4714,79.0207 93.5,77.5 Z"/></g>
<g><path style="opacity:1" fill="#54565b" d="M 95.5,64.5 C 98.2763,64.0889 98.943,64.9223 97.5,67C 98.0172,69.077 98.6839,71.077 99.5,73C 98.5509,73.6172 97.7175,73.4506 97,72.5C 96.2747,74.158 95.108,74.658 93.5,74C 93.9574,73.586 94.2907,73.086 94.5,72.5C 91.8419,69.4702 92.1753,66.8035 95.5,64.5 Z"/></g>
<g><path style="opacity:1" fill="#58595e" d="M 83.5,78.5 C 83.1667,78.5 82.8333,78.5 82.5,78.5C 82.19,77.2617 81.69,77.2617 81,78.5C 77.2201,72.834 78.2201,68.1674 84,64.5C 85.2131,66.1303 86.0464,67.9636 86.5,70C 86.0556,71.7618 85.5556,71.5951 85,69.5C 83.7114,72.3508 83.2114,75.3508 83.5,78.5 Z"/></g>
<g><path style="opacity:1" fill="#3e4045" d="M 141.5,76.5 C 141.876,82.2174 142.543,87.8841 143.5,93.5C 142.371,95.6282 142.204,97.9615 143,100.5C 144.5,99.3333 146,98.1667 147.5,97C 146.584,96.7216 145.918,96.2216 145.5,95.5C 145.938,95.5654 146.272,95.3988 146.5,95C 145.133,92.6985 144.466,90.1985 144.5,87.5C 145.482,89.4061 146.482,91.4061 147.5,93.5C 148.386,92.675 148.719,91.675 148.5,90.5C 149.552,90.6495 150.552,90.4828 151.5,90C 152.163,88.4815 153.163,87.3149 154.5,86.5C 154.817,90.1716 153.151,91.8383 149.5,91.5C 149.227,94.1369 148.894,96.4702 148.5,98.5C 150.171,99.8357 151.838,101.169 153.5,102.5C 152.27,102.974 151.27,104.308 150.5,106.5C 150.92,108.326 150.92,110.326 150.5,112.5C 149.5,112.5 148.5,112.5 147.5,112.5C 146.749,111.427 145.749,111.26 144.5,112C 145.336,113.243 145.003,114.41 143.5,115.5C 143.331,114.603 142.998,113.603 142.5,112.5C 141.749,113.376 141.249,114.376 141,115.5C 140.36,113.735 140.527,112.068 141.5,110.5C 142.683,109.496 144.016,108.662 145.5,108C 144.185,106.605 144.519,105.605 146.5,105C 145.167,104.667 143.833,104.333 142.5,104C 144.767,103.724 147.1,103.057 149.5,102C 148.975,101.308 148.308,100.808 147.5,100.5C 145.591,101.348 143.591,101.682 141.5,101.5C 141.665,98.1501 141.498,94.8168 141,91.5C 140.819,94.6946 140.319,97.6946 139.5,100.5C 139.656,98.8913 138.656,97.5579 136.5,96.5C 138.288,95.7174 139.288,94.3841 139.5,92.5C 140.265,89.9039 140.599,87.2372 140.5,84.5C 140.194,81.6146 140.527,78.9479 141.5,76.5 Z"/></g>
<g><path style="opacity:1" fill="#161719" d="M 143.5,93.5 C 143.833,94.5 144.5,95.1667 145.5,95.5C 145.918,96.2216 146.584,96.7216 147.5,97C 146,98.1667 144.5,99.3333 143,100.5C 142.204,97.9615 142.371,95.6282 143.5,93.5 Z"/></g>
<g><path style="opacity:1" fill="#202125" d="M 91.5,92.5 C 91.9449,97.1014 91.2783,101.435 89.5,105.5C 88.8826,105.389 88.3826,105.056 88,104.5C 87.3333,105.833 86.6667,107.167 86,108.5C 85.6582,106.381 84.8249,106.047 83.5,107.5C 83.5,106.833 83.5,106.167 83.5,105.5C 84.265,104.34 85.265,103.34 86.5,102.5C 87.0894,99.1631 88.0894,95.9965 89.5,93C 88.87,91.108 87.87,89.4413 86.5,88C 87.5786,87.044 88.7453,86.2106 90,85.5C 90.1862,88.0356 90.6862,90.369 91.5,92.5 Z"/></g>
<g><path style="opacity:1" fill="#7d7e83" d="M 110.5,99.5 C 109.537,100.363 109.537,101.03 110.5,101.5C 112.733,101.136 114.566,100.136 116,98.5C 117.128,100.345 117.628,102.345 117.5,104.5C 116.015,103.065 114.682,103.232 113.5,105C 114,105.5 114.5,106 115,106.5C 115.893,105.289 116.726,105.289 117.5,106.5C 115.713,107.316 114.046,108.316 112.5,109.5C 112.002,108.397 111.669,107.397 111.5,106.5C 109.51,110.03 108.677,109.697 109,105.5C 106.804,108.125 103.97,109.125 100.5,108.5C 102.502,105.666 105.002,103.333 108,101.5C 108.075,99.065 108.908,98.3984 110.5,99.5 Z"/></g>
<g><path style="opacity:1" fill="#787a80" d="M 91.5,92.5 C 92.29,93.6085 92.79,94.9419 93,96.5C 93.2784,95.5842 93.7784,94.9175 94.5,94.5C 95.2674,95.172 95.9341,96.0053 96.5,97C 95.4113,99.851 94.078,102.518 92.5,105C 92.7384,107.562 91.7384,109.896 89.5,112C 88.212,112.239 87.212,111.739 86.5,110.5C 87.7515,108.999 88.7515,107.332 89.5,105.5C 91.2783,101.435 91.9449,97.1014 91.5,92.5 Z"/></g>
<g><path style="opacity:1" fill="#65666b" d="M 141.5,110.5 C 141.631,109.761 141.464,109.094 141,108.5C 139.488,109.257 138.154,110.257 137,111.5C 137,110.167 137,108.833 137,107.5C 135.32,108.603 133.82,108.27 132.5,106.5C 131.749,107.376 131.249,108.376 131,109.5C 128.674,111.066 126.508,112.732 124.5,114.5C 122.4,114.477 120.567,115.144 119,116.5C 118.127,116.265 117.293,115.931 116.5,115.5C 116.331,116.397 115.998,117.397 115.5,118.5C 114.554,118.013 113.554,117.68 112.5,117.5C 109.26,119.974 105.927,120.14 102.5,118C 103.551,116.615 104.884,115.615 106.5,115C 104.381,114.658 104.047,113.825 105.5,112.5C 103.833,111.167 102.167,109.833 100.5,108.5C 103.97,109.125 106.804,108.125 109,105.5C 108.677,109.697 109.51,110.03 111.5,106.5C 111.669,107.397 112.002,108.397 112.5,109.5C 114.046,108.316 115.713,107.316 117.5,106.5C 116.726,105.289 115.893,105.289 115,106.5C 114.5,106 114,105.5 113.5,105C 114.682,103.232 116.015,103.065 117.5,104.5C 118.738,105.412 120.072,105.579 121.5,105C 120.09,104.632 119.09,103.799 118.5,102.5C 119.949,101.828 121.282,101.161 122.5,100.5C 123.933,104.134 126.266,104.967 129.5,103C 127.068,101.913 127.402,101.413 130.5,101.5C 130.693,105.449 131.193,105.449 132,101.5C 134.333,101.833 136.667,102.167 139,102.5C 139.464,101.906 139.631,101.239 139.5,100.5C 140.319,97.6946 140.819,94.6946 141,91.5C 141.498,94.8168 141.665,98.1501 141.5,101.5C 143.591,101.682 145.591,101.348 147.5,100.5C 148.308,100.808 148.975,101.308 149.5,102C 147.1,103.057 144.767,103.724 142.5,104C 143.833,104.333 145.167,104.667 146.5,105C 144.519,105.605 144.185,106.605 145.5,108C 144.016,108.662 142.683,109.496 141.5,110.5 Z"/></g>
<g><path style="opacity:1" fill="#3d3e43" d="M 141.5,110.5 C 139.225,111.111 137.559,112.445 136.5,114.5C 135.71,113.391 135.21,112.058 135,110.5C 134.594,113.742 133.761,116.742 132.5,119.5C 131.427,117.314 131.76,115.148 133.5,113C 130.846,113.865 127.846,114.365 124.5,114.5C 126.508,112.732 128.674,111.066 131,109.5C 131.249,108.376 131.749,107.376 132.5,106.5C 133.82,108.27 135.32,108.603 137,107.5C 137,108.833 137,110.167 137,111.5C 138.154,110.257 139.488,109.257 141,108.5C 141.464,109.094 141.631,109.761 141.5,110.5 Z"/></g>
<g><path style="opacity:1" fill="#3e4045" d="M 83.5,107.5 C 84.8249,106.047 85.6582,106.381 86,108.5C 86.6667,107.167 87.3333,105.833 88,104.5C 88.3826,105.056 88.8826,105.389 89.5,105.5C 88.7515,107.332 87.7515,108.999 86.5,110.5C 84.4842,112.249 82.8175,114.249 81.5,116.5C 80.5551,111.886 79.8885,107.219 79.5,102.5C 79.4346,102.062 79.6012,101.728 80,101.5C 80.4215,104.02 81.5881,106.02 83.5,107.5 Z"/></g>
<g><path style="opacity:1" fill="#4e4f54" d="M 168.5,100.5 C 169.11,101.391 169.443,102.391 169.5,103.5C 168.251,105.136 166.584,106.303 164.5,107C 164.957,107.414 165.291,107.914 165.5,108.5C 164.846,110.115 164.346,111.782 164,113.5C 163.667,113.167 163.333,112.833 163,112.5C 162.626,113.416 162.126,114.25 161.5,115C 162.566,116.159 162.233,116.992 160.5,117.5C 160.18,114.852 159.18,113.352 157.5,113C 159.628,111.013 160.628,108.513 160.5,105.5C 161.991,105.099 163.658,104.932 165.5,105C 167.158,104.275 167.658,103.108 167,101.5C 166.333,102.833 165.667,102.833 165,101.5C 164.333,100.5 164.333,99.5 165,98.5C 165.667,101.167 166.333,101.167 167,98.5C 167.278,99.4158 167.778,100.082 168.5,100.5 Z"/></g>
<g><path style="opacity:1" fill="#484a4e" d="M 105.5,112.5 C 104.047,113.825 104.381,114.658 106.5,115C 104.884,115.615 103.551,116.615 102.5,118C 105.927,120.14 109.26,119.974 112.5,117.5C 113.554,117.68 114.554,118.013 115.5,118.5C 115.998,117.397 116.331,116.397 116.5,115.5C 117.293,115.931 118.127,116.265 119,116.5C 120.567,115.144 122.4,114.477 124.5,114.5C 123.144,116.27 121.311,117.603 119,118.5C 117.632,119.993 117.465,121.493 118.5,123C 116.359,123.573 114.359,124.406 112.5,125.5C 111.167,126.5 109.833,127.5 108.5,128.5C 107.735,128.077 106.902,127.743 106,127.5C 101.354,129.264 97.3542,131.93 94,135.5C 94.1519,133.924 94.9852,132.591 96.5,131.5C 95.1066,128.398 95.94,127.398 99,128.5C 101.325,127.503 102.325,125.837 102,123.5C 100.112,125.744 98.6116,125.744 97.5,123.5C 98.2613,122.609 99.2613,121.942 100.5,121.5C 101.891,122.645 103.224,122.645 104.5,121.5C 101.966,120.223 99.4659,120.223 97,121.5C 96.2496,120.874 95.4162,120.374 94.5,120C 96.087,119.138 97.7536,118.471 99.5,118C 100.833,117.333 100.833,116.667 99.5,116C 101.405,114.579 103.405,113.412 105.5,112.5 Z"/></g>
<g><path style="opacity:1" fill="#77787d" d="M 100.5,108.5 C 102.167,109.833 103.833,111.167 105.5,112.5C 103.405,113.412 101.405,114.579 99.5,116C 100.833,116.667 100.833,117.333 99.5,118C 97.7536,118.471 96.087,119.138 94.5,120C 95.4162,120.374 96.2496,120.874 97,121.5C 99.4659,120.223 101.966,120.223 104.5,121.5C 103.224,122.645 101.891,122.645 100.5,121.5C 99.2613,121.942 98.2613,122.609 97.5,123.5C 95.5183,123.995 93.5183,124.495 91.5,125C 92.1667,125.333 92.8333,125.667 93.5,126C 91.355,128.33 90.0216,130.663 89.5,133C 91.6857,133.604 91.8524,134.77 90,136.5C 89.0138,135.829 87.8471,135.829 86.5,136.5C 86.5,136.167 86.5,135.833 86.5,135.5C 87.4885,132.919 88.4885,130.252 89.5,127.5C 91.8937,120.373 95.5604,114.039 100.5,108.5 Z"/></g>
<g><path style="opacity:1" fill="#686a6f" d="M 112.5,125.5 C 111.624,125.631 110.957,125.298 110.5,124.5C 111.95,123.15 112.617,121.484 112.5,119.5C 113.978,119.238 115.311,119.571 116.5,120.5C 114.596,121.766 113.263,123.433 112.5,125.5 Z"/></g>
<g><path style="opacity:1" fill="#686a6f" d="M 166.5,131.5 C 165.833,131.5 165.167,131.5 164.5,131.5C 167.699,126.212 167.199,125.546 163,129.5C 162.878,127.831 163.212,126.165 164,124.5C 164.667,125.833 165.333,125.833 166,124.5C 166.333,121.5 166.667,118.5 167,115.5C 168.499,118.972 168.666,122.472 167.5,126C 167.905,126.945 168.572,127.612 169.5,128C 168.29,129.039 167.29,130.206 166.5,131.5 Z"/></g>
<g><path style="opacity:1" fill="#3b3d42" d="M 130.5,124.5 C 129.952,126.626 129.285,128.626 128.5,130.5C 128.483,128.972 127.816,128.472 126.5,129C 125.54,130.419 124.707,131.919 124,133.5C 124.827,131.086 124.66,129.086 123.5,127.5C 122.702,129.078 122.202,130.744 122,132.5C 120.933,131.809 119.766,131.309 118.5,131C 119.624,130.751 120.624,130.251 121.5,129.5C 121.333,129.167 121.167,128.833 121,128.5C 117.846,128.911 115.013,128.911 112.5,128.5C 115.167,127.5 117.833,126.5 120.5,125.5C 119.66,123.716 120.493,122.716 123,122.5C 123.5,122.667 124,122.833 124.5,123C 123.5,124 122.5,125 121.5,126C 124.514,125.855 127.514,125.355 130.5,124.5 Z"/></g>
<g><path style="opacity:1" fill="#57595e" d="M 132.5,119.5 C 131.559,121.05 130.893,122.716 130.5,124.5C 127.514,125.355 124.514,125.855 121.5,126C 122.5,125 123.5,124 124.5,123C 124,122.833 123.5,122.667 123,122.5C 120.493,122.716 119.66,123.716 120.5,125.5C 117.833,126.5 115.167,127.5 112.5,128.5C 115.013,128.911 117.846,128.911 121,128.5C 121.167,128.833 121.333,129.167 121.5,129.5C 120.624,130.251 119.624,130.751 118.5,131C 119.766,131.309 120.933,131.809 122,132.5C 122.202,130.744 122.702,129.078 123.5,127.5C 124.66,129.086 124.827,131.086 124,133.5C 124.707,131.919 125.54,130.419 126.5,129C 127.816,128.472 128.483,128.972 128.5,130.5C 126.582,133.995 123.915,135.829 120.5,136C 121.793,136.49 123.127,136.657 124.5,136.5C 124.206,139.754 122.873,142.421 120.5,144.5C 120.539,143.244 120.039,142.244 119,141.5C 114.885,144.107 110.385,144.107 105.5,141.5C 105.369,140.761 105.536,140.094 106,139.5C 106.893,140.711 107.726,140.711 108.5,139.5C 107.311,138.571 105.978,138.238 104.5,138.5C 104.5,137.5 104.5,136.5 104.5,135.5C 107.48,135.241 109.313,136.574 110,139.5C 110.368,138.09 111.201,137.09 112.5,136.5C 113.711,137.274 113.711,138.107 112.5,139C 113.877,140.241 115.21,140.408 116.5,139.5C 115.045,137.78 114.212,135.78 114,133.5C 113.009,134.939 111.676,135.939 110,136.5C 110.077,135.262 109.911,134.262 109.5,133.5C 108.264,134.246 106.93,134.579 105.5,134.5C 105.5,133.5 105.5,132.5 105.5,131.5C 108.534,131.817 109.534,130.817 108.5,128.5C 109.833,127.5 111.167,126.5 112.5,125.5C 114.359,124.406 116.359,123.573 118.5,123C 117.465,121.493 117.632,119.993 119,118.5C 121.311,117.603 123.144,116.27 124.5,114.5C 127.846,114.365 130.846,113.865 133.5,113C 131.76,115.148 131.427,117.314 132.5,119.5 Z"/></g>
<g><path style="opacity:1" fill="#141518" d="M 157.5,70.5 C 158.167,70.5 158.833,70.5 159.5,70.5C 164.294,82.0808 164.628,93.7475 160.5,105.5C 160.628,108.513 159.628,111.013 157.5,113C 159.18,113.352 160.18,114.852 160.5,117.5C 159.387,118.946 159.22,120.613 160,122.5C 160.689,121.643 161.522,120.977 162.5,120.5C 163.739,122.007 163.405,123.174 161.5,124C 162.451,124.718 162.617,125.551 162,126.5C 161.085,125.672 160.419,124.672 160,123.5C 159.333,124.833 158.667,124.833 158,123.5C 156.855,128.632 156.355,133.632 156.5,138.5C 154.893,133.228 153.06,133.228 151,138.5C 150.586,138.043 150.086,137.709 149.5,137.5C 147.997,140.677 146.997,144.011 146.5,147.5C 146.5,147.833 146.5,148.167 146.5,148.5C 142.364,149.635 138.697,151.635 135.5,154.5C 134.883,154.611 134.383,154.944 134,155.5C 132.89,153.963 131.39,153.297 129.5,153.5C 129.608,151.217 130.441,149.217 132,147.5C 132.333,148.167 132.667,148.833 133,149.5C 136.864,146.646 139.53,142.98 141,138.5C 144.448,135.046 147.115,131.046 149,126.5C 153.744,114.435 157.578,102.101 160.5,89.5C 160.5,87.1667 160.5,84.8333 160.5,82.5C 160.581,78.3274 159.248,74.6607 156.5,71.5C 156.624,70.8933 156.957,70.56 157.5,70.5 Z"/></g>
<g><path style="opacity:1" fill="#323338" d="M 164.5,131.5 C 165.167,131.5 165.833,131.5 166.5,131.5C 168.293,131.884 169.293,133.05 169.5,135C 168.993,139.245 166.66,141.745 162.5,142.5C 163.478,140.188 165.145,138.522 167.5,137.5C 164.812,136.826 162.145,137.16 159.5,138.5C 160.044,135.3 161.71,132.967 164.5,131.5 Z"/></g>
<g><path style="opacity:1" fill="#44464c" d="M 81.5,116.5 C 80.8603,119.748 81.0269,123.082 82,126.5C 82.6691,122.915 84.5024,120.248 87.5,118.5C 87.0711,122.024 85.5711,125.024 83,127.5C 82.3333,129.5 82.3333,131.5 83,133.5C 83.414,133.957 83.914,134.291 84.5,134.5C 85.9367,131.959 87.1034,129.292 88,126.5C 88.3826,127.056 88.8826,127.389 89.5,127.5C 88.4885,130.252 87.4885,132.919 86.5,135.5C 85.1805,136.942 83.5138,137.608 81.5,137.5C 81.6633,139.857 81.4966,142.19 81,144.5C 80.9868,140.617 79.8201,137.284 77.5,134.5C 77.5,134.167 77.5,133.833 77.5,133.5C 78.1643,128.532 78.6643,123.532 79,118.5C 79.0748,116.065 79.9081,115.398 81.5,116.5 Z"/></g>
<g><path style="opacity:1" fill="#383a3f" d="M 108.5,128.5 C 109.534,130.817 108.534,131.817 105.5,131.5C 105.5,132.5 105.5,133.5 105.5,134.5C 106.93,134.579 108.264,134.246 109.5,133.5C 109.911,134.262 110.077,135.262 110,136.5C 111.676,135.939 113.009,134.939 114,133.5C 114.212,135.78 115.045,137.78 116.5,139.5C 115.21,140.408 113.877,140.241 112.5,139C 113.711,138.107 113.711,137.274 112.5,136.5C 111.201,137.09 110.368,138.09 110,139.5C 109.313,136.574 107.48,135.241 104.5,135.5C 104.5,136.5 104.5,137.5 104.5,138.5C 105.978,138.238 107.311,138.571 108.5,139.5C 107.726,140.711 106.893,140.711 106,139.5C 105.536,140.094 105.369,140.761 105.5,141.5C 104.357,141.092 103.357,140.425 102.5,139.5C 103.645,138.109 103.645,136.776 102.5,135.5C 101.268,136.145 99.9346,136.311 98.5,136C 95.783,139.892 92.4497,141.559 88.5,141C 89.1258,140.25 89.6258,139.416 90,138.5C 90.3333,138.833 90.6667,139.167 91,139.5C 93.8456,137.743 96.5122,135.743 99,133.5C 100.398,134.051 101.732,134.384 103,134.5C 104.914,133.324 104.748,132.324 102.5,131.5C 104.884,130.989 106.884,129.989 108.5,128.5 Z"/></g>
<g><path style="opacity:1" fill="#18191c" d="M 162.5,142.5 C 162.44,143.043 162.107,143.376 161.5,143.5C 158.376,142.731 157.709,141.064 159.5,138.5C 162.145,137.16 164.812,136.826 167.5,137.5C 165.145,138.522 163.478,140.188 162.5,142.5 Z"/></g>
<g><path style="opacity:1" fill="#1e1f22" d="M 160.5,89.5 C 157.578,102.101 153.744,114.435 149,126.5C 147.115,131.046 144.448,135.046 141,138.5C 139.53,142.98 136.864,146.646 133,149.5C 132.667,148.833 132.333,148.167 132,147.5C 130.441,149.217 129.608,151.217 129.5,153.5C 131.39,153.297 132.89,153.963 134,155.5C 134.383,154.944 134.883,154.611 135.5,154.5C 135.5,155.5 135.5,156.5 135.5,157.5C 134.52,161.326 133.687,161.326 133,157.5C 132.163,159.351 131.329,161.184 130.5,163C 128.934,163.765 127.601,163.598 126.5,162.5C 126.351,161.448 126.517,160.448 127,159.5C 127.333,159.833 127.667,160.167 128,160.5C 130.311,158.483 129.977,157.149 127,156.5C 125.699,156.639 124.866,157.305 124.5,158.5C 122.833,158.5 121.167,158.5 119.5,158.5C 118.71,157.391 118.21,156.058 118,154.5C 113.809,156.56 113.976,158.56 118.5,160.5C 112.834,160.575 110.501,163.242 111.5,168.5C 112.11,169.391 112.443,170.391 112.5,171.5C 111.21,172.058 110.377,173.058 110,174.5C 110.174,180.98 108.174,186.647 104,191.5C 102.921,194.063 102.421,196.729 102.5,199.5C 98.5,199.5 94.5,199.5 90.5,199.5C 90.7373,198.209 90.404,197.209 89.5,196.5C 88.475,196.103 88.3083,195.437 89,194.5C 91.9525,196.887 94.2858,196.221 96,192.5C 96.3333,192.833 96.6667,193.167 97,193.5C 101.415,183.493 104.415,173.159 106,162.5C 103.125,166.939 99.7917,170.939 96,174.5C 95.6667,174.167 95.3333,173.833 95,173.5C 94,176.5 93,179.5 92,182.5C 91.6667,181.833 91.3333,181.167 91,180.5C 88.2533,184.801 86.42,184.468 85.5,179.5C 95.5,169.833 105.5,160.167 115.5,150.5C 116.5,150.167 117.167,149.5 117.5,148.5C 118.974,147.564 119.974,146.23 120.5,144.5C 122.873,142.421 124.206,139.754 124.5,136.5C 123.127,136.657 121.793,136.49 120.5,136C 123.915,135.829 126.582,133.995 128.5,130.5C 129.285,128.626 129.952,126.626 130.5,124.5C 130.893,122.716 131.559,121.05 132.5,119.5C 133.761,116.742 134.594,113.742 135,110.5C 135.21,112.058 135.71,113.391 136.5,114.5C 136.461,115.583 136.127,116.583 135.5,117.5C 136.025,118.192 136.692,118.692 137.5,119C 136.635,120.359 135.635,121.526 134.5,122.5C 133.957,122.56 133.624,122.893 133.5,123.5C 135.124,125.297 135.624,127.297 135,129.5C 134.333,128.833 133.667,128.167 133,127.5C 132.749,129.433 132.249,131.266 131.5,133C 132.5,133.333 133.5,133.667 134.5,134C 132.36,136.066 131.693,138.4 132.5,141C 131.289,142.578 129.955,142.745 128.5,141.5C 129.405,139.362 130.405,137.195 131.5,135C 130.874,134.25 130.374,133.416 130,132.5C 128.999,135.173 127.499,137.507 125.5,139.5C 128.131,141.005 127.797,141.671 124.5,141.5C 124.351,142.552 124.517,143.552 125,144.5C 126.558,143.655 127.558,144.321 128,146.5C 128.953,144.408 130.286,144.075 132,145.5C 133.487,144.747 133.654,143.914 132.5,143C 133.552,141.881 134.719,141.381 136,141.5C 136.208,138.274 137.041,134.941 138.5,131.5C 140.006,130.77 141.34,130.437 142.5,130.5C 141.758,128.65 140.758,127.984 139.5,128.5C 140.491,126.677 141.824,125.177 143.5,124C 142.549,123.282 142.383,122.449 143,121.5C 145.369,120.14 147.536,118.474 149.5,116.5C 149,115.5 148.5,114.5 148,113.5C 147.583,114.756 146.75,115.423 145.5,115.5C 145.932,114.29 146.599,113.29 147.5,112.5C 148.5,112.5 149.5,112.5 150.5,112.5C 150.92,110.326 150.92,108.326 150.5,106.5C 151.27,104.308 152.27,102.974 153.5,102.5C 156.782,100.049 158.782,96.7156 159.5,92.5C 158.223,91.0783 158.557,90.0783 160.5,89.5 Z"/></g>
<g><path style="opacity:1" fill="#3f4145" d="M 134.5,122.5 C 135.931,122.881 136.764,123.881 137,125.5C 137.925,124.953 138.758,124.287 139.5,123.5C 139.154,122.304 138.654,122.304 138,123.5C 137.333,122.5 137.333,121.5 138,120.5C 140,119.833 141.333,118.5 142,116.5C 143.313,117.287 144.48,116.954 145.5,115.5C 146.75,115.423 147.583,114.756 148,113.5C 148.5,114.5 149,115.5 149.5,116.5C 147.536,118.474 145.369,120.14 143,121.5C 142.383,122.449 142.549,123.282 143.5,124C 141.824,125.177 140.491,126.677 139.5,128.5C 140.758,127.984 141.758,128.65 142.5,130.5C 141.34,130.437 140.006,130.77 138.5,131.5C 137.041,134.941 136.208,138.274 136,141.5C 134.719,141.381 133.552,141.881 132.5,143C 133.654,143.914 133.487,144.747 132,145.5C 130.286,144.075 128.953,144.408 128,146.5C 127.558,144.321 126.558,143.655 125,144.5C 124.517,143.552 124.351,142.552 124.5,141.5C 127.797,141.671 128.131,141.005 125.5,139.5C 127.499,137.507 128.999,135.173 130,132.5C 130.374,133.416 130.874,134.25 131.5,135C 130.405,137.195 129.405,139.362 128.5,141.5C 129.955,142.745 131.289,142.578 132.5,141C 131.693,138.4 132.36,136.066 134.5,134C 133.5,133.667 132.5,133.333 131.5,133C 132.249,131.266 132.749,129.433 133,127.5C 133.667,128.167 134.333,128.833 135,129.5C 135.624,127.297 135.124,125.297 133.5,123.5C 133.624,122.893 133.957,122.56 134.5,122.5 Z"/></g>
<g><path style="opacity:1" fill="#515458" d="M 141.5,110.5 C 140.527,112.068 140.36,113.735 141,115.5C 141.249,114.376 141.749,113.376 142.5,112.5C 142.998,113.603 143.331,114.603 143.5,115.5C 145.003,114.41 145.336,113.243 144.5,112C 145.749,111.26 146.749,111.427 147.5,112.5C 146.599,113.29 145.932,114.29 145.5,115.5C 144.48,116.954 143.313,117.287 142,116.5C 141.333,118.5 140,119.833 138,120.5C 137.333,121.5 137.333,122.5 138,123.5C 138.654,122.304 139.154,122.304 139.5,123.5C 138.758,124.287 137.925,124.953 137,125.5C 136.764,123.881 135.931,122.881 134.5,122.5C 135.635,121.526 136.635,120.359 137.5,119C 136.692,118.692 136.025,118.192 135.5,117.5C 136.127,116.583 136.461,115.583 136.5,114.5C 137.559,112.445 139.225,111.111 141.5,110.5 Z"/></g>
<g><path style="opacity:1" fill="#25262a" d="M 156.5,138.5 C 153.769,142.234 150.436,145.234 146.5,147.5C 146.997,144.011 147.997,140.677 149.5,137.5C 150.086,137.709 150.586,138.043 151,138.5C 153.06,133.228 154.893,133.228 156.5,138.5 Z"/></g>
<g><path style="opacity:1" fill="#4f5155" d="M 117.5,148.5 C 117.167,149.5 116.5,150.167 115.5,150.5C 113.606,151.048 111.94,152.048 110.5,153.5C 109.808,152.975 109.308,152.308 109,151.5C 106.667,153.833 104.333,156.167 102,158.5C 99.7779,155.956 97.6112,155.956 95.5,158.5C 95.1667,158.333 94.8333,158.167 94.5,158C 95.6667,156.833 96.8333,155.667 98,154.5C 100.29,155.275 102.124,154.442 103.5,152C 100.819,151.807 98.1523,150.807 95.5,149C 98.1506,148.847 100.484,148.013 102.5,146.5C 103.15,146.804 103.817,147.137 104.5,147.5C 107.911,143.603 110.911,143.769 113.5,148C 114.959,147.645 116.293,147.811 117.5,148.5 Z"/></g>
<g><path style="opacity:1" fill="#64666b" d="M 97.5,123.5 C 98.6116,125.744 100.112,125.744 102,123.5C 102.325,125.837 101.325,127.503 99,128.5C 95.94,127.398 95.1066,128.398 96.5,131.5C 94.9852,132.591 94.1519,133.924 94,135.5C 97.3542,131.93 101.354,129.264 106,127.5C 106.902,127.743 107.735,128.077 108.5,128.5C 106.884,129.989 104.884,130.989 102.5,131.5C 104.748,132.324 104.914,133.324 103,134.5C 101.732,134.384 100.398,134.051 99,133.5C 96.5122,135.743 93.8456,137.743 91,139.5C 90.6667,139.167 90.3333,138.833 90,138.5C 89.6258,139.416 89.1258,140.25 88.5,141C 92.4497,141.559 95.783,139.892 98.5,136C 99.9346,136.311 101.268,136.145 102.5,135.5C 103.645,136.776 103.645,138.109 102.5,139.5C 103.357,140.425 104.357,141.092 105.5,141.5C 104.737,142.268 103.737,142.768 102.5,143C 108.837,143.837 108.503,144.503 101.5,145C 102.056,145.383 102.389,145.883 102.5,146.5C 100.484,148.013 98.1506,148.847 95.5,149C 98.1523,150.807 100.819,151.807 103.5,152C 102.124,154.442 100.29,155.275 98,154.5C 96.8333,155.667 95.6667,156.833 94.5,158C 94.8333,158.167 95.1667,158.333 95.5,158.5C 97.6112,155.956 99.7779,155.956 102,158.5C 104.333,156.167 106.667,153.833 109,151.5C 109.308,152.308 109.808,152.975 110.5,153.5C 111.94,152.048 113.606,151.048 115.5,150.5C 105.5,160.167 95.5,169.833 85.5,179.5C 84.609,180.11 83.609,180.443 82.5,180.5C 82.178,178.278 82.8446,176.444 84.5,175C 83.6422,173.43 82.9755,171.763 82.5,170C 82.9949,167.991 82.9949,165.824 82.5,163.5C 83.391,162.89 84.391,162.557 85.5,162.5C 85.5173,164.028 86.184,164.528 87.5,164C 89.4606,161.037 91.794,158.371 94.5,156C 94.1667,155.667 93.8333,155.333 93.5,155C 94.8333,154 96.1667,153 97.5,152C 92.2318,150.221 92.2318,148.555 97.5,147C 96.0863,145.452 94.4196,144.785 92.5,145C 92.9574,145.414 93.2907,145.914 93.5,146.5C 92.4382,151.63 90.1049,155.964 86.5,159.5C 85.5178,160.141 84.5178,160.807 83.5,161.5C 82.7025,161.043 82.3691,160.376 82.5,159.5C 82.3668,154.698 83.5334,150.031 86,145.5C 86.498,142.518 86.6646,139.518 86.5,136.5C 87.8471,135.829 89.0138,135.829 90,136.5C 91.8524,134.77 91.6857,133.604 89.5,133C 90.0216,130.663 91.355,128.33 93.5,126C 92.8333,125.667 92.1667,125.333 91.5,125C 93.5183,124.495 95.5183,123.995 97.5,123.5 Z"/></g>
<g><path style="opacity:1" fill="#3b3c40" d="M 105.5,141.5 C 110.385,144.107 114.885,144.107 119,141.5C 120.039,142.244 120.539,143.244 120.5,144.5C 119.974,146.23 118.974,147.564 117.5,148.5C 116.293,147.811 114.959,147.645 113.5,148C 110.911,143.769 107.911,143.603 104.5,147.5C 103.817,147.137 103.15,146.804 102.5,146.5C 102.389,145.883 102.056,145.383 101.5,145C 108.503,144.503 108.837,143.837 102.5,143C 103.737,142.768 104.737,142.268 105.5,141.5 Z"/></g>
<g><path style="opacity:1" fill="#1b1c1f" d="M 155.5,143.5 C 159.908,143.062 161.575,145.062 160.5,149.5C 159.577,148.697 158.577,148.53 157.5,149C 156.915,150.302 156.249,151.469 155.5,152.5C 154.081,151.549 152.415,151.216 150.5,151.5C 150.5,150.5 150.5,149.5 150.5,148.5C 152.911,147.483 154.578,145.816 155.5,143.5 Z"/></g>
<g><path style="opacity:1" fill="#7a7c82" d="M 164.5,131.5 C 161.71,132.967 160.044,135.3 159.5,138.5C 157.413,139.585 156.08,141.251 155.5,143.5C 154.578,145.816 152.911,147.483 150.5,148.5C 148.956,148.703 147.622,149.37 146.5,150.5C 145.537,150.03 145.537,149.363 146.5,148.5C 146.5,148.167 146.5,147.833 146.5,147.5C 150.436,145.234 153.769,142.234 156.5,138.5C 158.558,136.073 160.391,133.407 162,130.5C 162.671,131.252 163.504,131.586 164.5,131.5 Z"/></g>
<g><path style="opacity:1" fill="#5e6065" d="M 160.5,149.5 C 163.661,151.705 166.661,152.038 169.5,150.5C 170.423,154.064 170.756,157.731 170.5,161.5C 170.167,161.5 169.833,161.5 169.5,161.5C 169.66,159.801 169.494,158.134 169,156.5C 168,157.833 167,157.833 166,156.5C 165.504,158.035 165.67,159.535 166.5,161C 165.99,162.826 165.156,162.993 164,161.5C 161.855,159.105 162.022,156.938 164.5,155C 159.797,155.918 159.463,154.918 163.5,152C 162.234,151.691 161.067,151.191 160,150.5C 158.833,151.667 157.667,152.833 156.5,154C 156.833,154.333 157.167,154.667 157.5,155C 152.735,153.992 151.401,155.825 153.5,160.5C 152.607,158.703 151.274,157.37 149.5,156.5C 150.625,155.348 150.625,154.348 149.5,153.5C 151.265,152.539 153.265,152.205 155.5,152.5C 156.249,151.469 156.915,150.302 157.5,149C 158.577,148.53 159.577,148.697 160.5,149.5 Z"/></g>
<g><path style="opacity:1" fill="#191a1d" d="M 149.5,153.5 C 150.625,154.348 150.625,155.348 149.5,156.5C 147.621,157.341 145.621,157.675 143.5,157.5C 142.438,156.425 142.438,155.425 143.5,154.5C 145.409,153.652 147.409,153.318 149.5,153.5 Z"/></g>
<g><path style="opacity:1" fill="#42444a" d="M 146.5,148.5 C 145.537,149.363 145.537,150.03 146.5,150.5C 147.622,149.37 148.956,148.703 150.5,148.5C 150.5,149.5 150.5,150.5 150.5,151.5C 152.415,151.216 154.081,151.549 155.5,152.5C 153.265,152.205 151.265,152.539 149.5,153.5C 147.409,153.318 145.409,153.652 143.5,154.5C 142.438,155.425 142.438,156.425 143.5,157.5C 143.5,157.833 143.5,158.167 143.5,158.5C 140.946,157.612 138.279,157.279 135.5,157.5C 135.5,156.5 135.5,155.5 135.5,154.5C 138.697,151.635 142.364,149.635 146.5,148.5 Z"/></g>
<g><path style="opacity:1" fill="#54565b" d="M 119.5,158.5 C 119.672,159.492 119.338,160.158 118.5,160.5C 113.976,158.56 113.809,156.56 118,154.5C 118.21,156.058 118.71,157.391 119.5,158.5 Z"/></g>
<g><path style="opacity:1" fill="#7e8085" d="M 85.5,162.5 C 86.1098,161.609 86.4431,160.609 86.5,159.5C 90.1049,155.964 92.4382,151.63 93.5,146.5C 93.2907,145.914 92.9574,145.414 92.5,145C 94.4196,144.785 96.0863,145.452 97.5,147C 92.2318,148.555 92.2318,150.221 97.5,152C 96.1667,153 94.8333,154 93.5,155C 93.8333,155.333 94.1667,155.667 94.5,156C 91.794,158.371 89.4606,161.037 87.5,164C 86.184,164.528 85.5173,164.028 85.5,162.5 Z"/></g>
<g><path style="opacity:1" fill="#64676d" d="M 149.5,156.5 C 149.688,159.206 150.688,161.539 152.5,163.5C 151.833,163.5 151.167,163.5 150.5,163.5C 150.134,162.305 149.301,161.639 148,161.5C 146.333,162.5 144.667,163.5 143,164.5C 142.5,164.167 142,163.833 141.5,163.5C 143.149,162.852 144.482,161.852 145.5,160.5C 145.145,159.478 144.478,158.811 143.5,158.5C 143.5,158.167 143.5,157.833 143.5,157.5C 145.621,157.675 147.621,157.341 149.5,156.5 Z"/></g>
<g><path style="opacity:1" fill="#28292e" d="M 149.5,156.5 C 151.274,157.37 152.607,158.703 153.5,160.5C 153.577,161.75 154.244,162.583 155.5,163C 154.552,163.483 153.552,163.649 152.5,163.5C 150.688,161.539 149.688,159.206 149.5,156.5 Z"/></g>
<g><path style="opacity:1" fill="#63656a" d="M 126.5,162.5 C 125.849,161.909 125.182,161.243 124.5,160.5C 123.894,162.623 122.894,164.957 121.5,167.5C 121.44,168.043 121.107,168.376 120.5,168.5C 119.548,166.955 119.215,165.288 119.5,163.5C 122.279,162.383 122.612,161.217 120.5,160C 122.736,159.921 124.07,159.421 124.5,158.5C 124.866,157.305 125.699,156.639 127,156.5C 129.977,157.149 130.311,158.483 128,160.5C 127.667,160.167 127.333,159.833 127,159.5C 126.517,160.448 126.351,161.448 126.5,162.5 Z"/></g>
<g><path style="opacity:1" fill="#313236" d="M 169.5,161.5 C 168.012,164.944 167.179,168.611 167,172.5C 166.444,170.405 165.944,170.238 165.5,172C 165.941,175.485 167.274,178.485 169.5,181C 168.748,181.671 168.414,182.504 168.5,183.5C 170.298,187.219 170.798,191.219 170,195.5C 169.346,194.304 168.846,194.304 168.5,195.5C 169.246,196.736 169.579,198.07 169.5,199.5C 165.833,199.5 162.167,199.5 158.5,199.5C 158.59,197.304 158.923,195.137 159.5,193C 159.612,191.338 158.946,190.171 157.5,189.5C 156.786,192.027 156.12,194.527 155.5,197C 156.308,197.308 156.975,197.808 157.5,198.5C 151.202,199.496 144.868,199.83 138.5,199.5C 139.176,197.141 140.009,194.808 141,192.5C 141.689,193.357 142.522,194.023 143.5,194.5C 144.777,191.966 144.777,189.466 143.5,187C 144.949,185.883 146.616,185.216 148.5,185C 146.959,183.629 145.625,182.129 144.5,180.5C 149.782,182.061 151.115,180.561 148.5,176C 149.416,175.722 150.082,175.222 150.5,174.5C 152.695,175.219 154.195,174.219 155,171.5C 155.342,173.818 154.842,175.985 153.5,178C 154,178.5 154.5,179 155,179.5C 155.949,176.645 157.616,174.311 160,172.5C 160.561,174.725 161.561,176.725 163,178.5C 163.944,177.737 164.444,176.737 164.5,175.5C 163.256,172.913 161.589,170.58 159.5,168.5C 159.977,167.522 160.643,166.689 161.5,166C 159.041,165.276 158.041,163.943 158.5,162C 156.753,161.648 155.086,161.148 153.5,160.5C 151.401,155.825 152.735,153.992 157.5,155C 157.167,154.667 156.833,154.333 156.5,154C 157.667,152.833 158.833,151.667 160,150.5C 161.067,151.191 162.234,151.691 163.5,152C 159.463,154.918 159.797,155.918 164.5,155C 162.022,156.938 161.855,159.105 164,161.5C 165.156,162.993 165.99,162.826 166.5,161C 165.67,159.535 165.504,158.035 166,156.5C 167,157.833 168,157.833 169,156.5C 169.494,158.134 169.66,159.801 169.5,161.5 Z"/></g>
<g><path style="opacity:1" fill="#484a4e" d="M 169.5,161.5 C 169.833,161.5 170.167,161.5 170.5,161.5C 171.166,167.658 171.5,173.991 171.5,180.5C 171.496,187.204 170.83,193.537 169.5,199.5C 169.579,198.07 169.246,196.736 168.5,195.5C 168.846,194.304 169.346,194.304 170,195.5C 170.798,191.219 170.298,187.219 168.5,183.5C 168.414,182.504 168.748,181.671 169.5,181C 167.274,178.485 165.941,175.485 165.5,172C 165.944,170.238 166.444,170.405 167,172.5C 167.179,168.611 168.012,164.944 169.5,161.5 Z"/></g>
<g><path style="opacity:1" fill="#828389" d="M 119.5,158.5 C 121.167,158.5 122.833,158.5 124.5,158.5C 124.07,159.421 122.736,159.921 120.5,160C 122.612,161.217 122.279,162.383 119.5,163.5C 117.833,163.5 116.167,163.5 114.5,163.5C 114.66,165.199 114.494,166.866 114,168.5C 113.667,167.5 113.333,166.5 113,165.5C 112.768,166.737 112.268,167.737 111.5,168.5C 110.501,163.242 112.834,160.575 118.5,160.5C 119.338,160.158 119.672,159.492 119.5,158.5 Z"/></g>
<g><path style="opacity:1" fill="#56575c" d="M 153.5,160.5 C 155.086,161.148 156.753,161.648 158.5,162C 158.041,163.943 159.041,165.276 161.5,166C 160.643,166.689 159.977,167.522 159.5,168.5C 161.589,170.58 163.256,172.913 164.5,175.5C 164.444,176.737 163.944,177.737 163,178.5C 161.561,176.725 160.561,174.725 160,172.5C 157.616,174.311 155.949,176.645 155,179.5C 154.5,179 154,178.5 153.5,178C 154.842,175.985 155.342,173.818 155,171.5C 154.195,174.219 152.695,175.219 150.5,174.5C 150.413,171.402 150.913,171.068 152,173.5C 152.068,170.681 153.234,168.514 155.5,167C 154.29,165.961 153.29,164.794 152.5,163.5C 153.552,163.649 154.552,163.483 155.5,163C 154.244,162.583 153.577,161.75 153.5,160.5 Z"/></g>
<g><path style="opacity:1" fill="#141517" d="M 82.5,163.5 C 82.9949,165.824 82.9949,167.991 82.5,170C 82.9755,171.763 83.6422,173.43 84.5,175C 82.8446,176.444 82.178,178.278 82.5,180.5C 82.6621,182.527 82.4955,184.527 82,186.5C 81.2828,185.956 80.7828,185.289 80.5,184.5C 79.1032,183.181 78.4365,181.514 78.5,179.5C 80.3123,173.569 81.6457,168.236 82.5,163.5 Z"/></g>
<g><path style="opacity:1" fill="#393b3f" d="M 150.5,163.5 C 151.167,163.5 151.833,163.5 152.5,163.5C 153.29,164.794 154.29,165.961 155.5,167C 153.234,168.514 152.068,170.681 152,173.5C 150.913,171.068 150.413,171.402 150.5,174.5C 148.592,174.117 147.092,173.117 146,171.5C 145.581,172.672 144.915,173.672 144,174.5C 143.601,174.272 143.435,173.938 143.5,173.5C 143.848,170.981 145.181,169.147 147.5,168C 143.77,168.488 143.436,167.155 146.5,164C 147.5,163.333 148.5,163.333 149.5,164C 148.446,165.388 148.28,166.888 149,168.5C 149.914,164.815 150.581,165.148 151,169.5C 151.678,167.402 151.511,165.402 150.5,163.5 Z"/></g>
<g><path style="opacity:1" fill="#3e4045" d="M 119.5,163.5 C 119.215,165.288 119.548,166.955 120.5,168.5C 121.107,168.376 121.44,168.043 121.5,167.5C 123.085,168.002 123.585,169.002 123,170.5C 119.973,174.861 116.306,178.527 112,181.5C 111.362,180.391 110.862,179.225 110.5,178C 111.609,175.953 112.276,173.787 112.5,171.5C 112.443,170.391 112.11,169.391 111.5,168.5C 112.268,167.737 112.768,166.737 113,165.5C 113.333,166.5 113.667,167.5 114,168.5C 114.494,166.866 114.66,165.199 114.5,163.5C 116.167,163.5 117.833,163.5 119.5,163.5 Z"/></g>
<g><path style="opacity:1" fill="#27282c" d="M 135.5,157.5 C 138.279,157.279 140.946,157.612 143.5,158.5C 144.478,158.811 145.145,159.478 145.5,160.5C 144.482,161.852 143.149,162.852 141.5,163.5C 142,163.833 142.5,164.167 143,164.5C 144.667,163.5 146.333,162.5 148,161.5C 149.301,161.639 150.134,162.305 150.5,163.5C 151.511,165.402 151.678,167.402 151,169.5C 150.581,165.148 149.914,164.815 149,168.5C 148.28,166.888 148.446,165.388 149.5,164C 148.5,163.333 147.5,163.333 146.5,164C 143.436,167.155 143.77,168.488 147.5,168C 145.181,169.147 143.848,170.981 143.5,173.5C 140.649,176.283 140.983,178.616 144.5,180.5C 143.609,181.11 142.609,181.443 141.5,181.5C 139.95,179.067 139.616,176.567 140.5,174C 137.898,172.985 136.065,171.152 135,168.5C 134.308,169.025 133.808,169.692 133.5,170.5C 135.733,172.569 136.4,174.903 135.5,177.5C 134.127,177.343 132.793,177.51 131.5,178C 130.076,180.101 128.742,182.267 127.5,184.5C 127.613,183.141 126.947,181.807 125.5,180.5C 125.5,179.5 125.5,178.5 125.5,177.5C 127.167,177.5 128.833,177.5 130.5,177.5C 132.653,173.469 131.653,170.469 127.5,168.5C 124.502,173.118 121.002,177.452 117,181.5C 116.533,185.496 115.699,189.329 114.5,193C 114.653,195.216 114.986,197.383 115.5,199.5C 111.167,199.5 106.833,199.5 102.5,199.5C 102.421,196.729 102.921,194.063 104,191.5C 108.174,186.647 110.174,180.98 110,174.5C 110.377,173.058 111.21,172.058 112.5,171.5C 112.276,173.787 111.609,175.953 110.5,178C 110.862,179.225 111.362,180.391 112,181.5C 116.306,178.527 119.973,174.861 123,170.5C 123.585,169.002 123.085,168.002 121.5,167.5C 122.894,164.957 123.894,162.623 124.5,160.5C 125.182,161.243 125.849,161.909 126.5,162.5C 127.601,163.598 128.934,163.765 130.5,163C 131.329,161.184 132.163,159.351 133,157.5C 133.687,161.326 134.52,161.326 135.5,157.5 Z"/></g>
<g><path style="opacity:1" fill="#616268" d="M 150.5,174.5 C 150.082,175.222 149.416,175.722 148.5,176C 151.115,180.561 149.782,182.061 144.5,180.5C 140.983,178.616 140.649,176.283 143.5,173.5C 143.435,173.938 143.601,174.272 144,174.5C 144.915,173.672 145.581,172.672 146,171.5C 147.092,173.117 148.592,174.117 150.5,174.5 Z"/></g>
<g><path style="opacity:1" fill="#5f6168" d="M 141.5,181.5 C 140.504,181.414 139.671,181.748 139,182.5C 138.506,180.866 138.34,179.199 138.5,177.5C 137.5,177.5 136.5,177.5 135.5,177.5C 136.4,174.903 135.733,172.569 133.5,170.5C 133.808,169.692 134.308,169.025 135,168.5C 136.065,171.152 137.898,172.985 140.5,174C 139.616,176.567 139.95,179.067 141.5,181.5 Z"/></g>
<g><path style="opacity:1" fill="#1e1f23" d="M 77.5,134.5 C 79.8201,137.284 80.9868,140.617 81,144.5C 81.4966,142.19 81.6633,139.857 81.5,137.5C 83.5138,137.608 85.1805,136.942 86.5,135.5C 86.5,135.833 86.5,136.167 86.5,136.5C 86.6646,139.518 86.498,142.518 86,145.5C 83.5334,150.031 82.3668,154.698 82.5,159.5C 80.7316,155.956 79.8982,151.956 80,147.5C 79.6667,148.167 79.3333,148.833 79,149.5C 78.9142,160.575 78.0808,171.575 76.5,182.5C 78.0027,184.821 79.0027,188.655 79.5,194C 79.3333,194.833 79.1667,195.667 79,196.5C 78.6667,195.167 78.3333,193.833 78,192.5C 76.1932,194.706 76.0265,197.039 77.5,199.5C 76.5,199.5 75.5,199.5 74.5,199.5C 74.3334,182.83 74.5001,166.163 75,149.5C 75.3333,150.167 75.6667,150.833 76,151.5C 76.5307,145.829 77.0307,140.162 77.5,134.5 Z"/></g>
<g><path style="opacity:1" fill="#57585d" d="M 168.5,183.5 C 167.602,184.158 166.602,184.824 165.5,185.5C 167.856,186.654 168.023,187.987 166,189.5C 165.333,188.833 164.667,188.167 164,187.5C 163.781,188.938 163.281,190.271 162.5,191.5C 160.613,189.112 159.946,186.612 160.5,184C 161.5,183.5 162.5,183 163.5,182.5C 165.265,183.026 166.932,183.359 168.5,183.5 Z"/></g>
<g><path style="opacity:1" fill="#515357" d="M 135.5,177.5 C 136.565,185.98 135.732,186.313 133,178.5C 131.706,179.854 131.54,181.188 132.5,182.5C 130.8,184.068 129.466,185.901 128.5,188C 129.617,191.073 129.784,194.24 129,197.5C 128.667,195.167 128.333,192.833 128,190.5C 126.451,193.312 125.618,196.312 125.5,199.5C 125.167,199.5 124.833,199.5 124.5,199.5C 124.666,194.821 124.499,190.155 124,185.5C 122.687,189.42 121.687,193.42 121,197.5C 119.007,193.882 118.174,190.216 118.5,186.5C 120.888,183.713 123.222,181.713 125.5,180.5C 126.947,181.807 127.613,183.141 127.5,184.5C 128.742,182.267 130.076,180.101 131.5,178C 132.793,177.51 134.127,177.343 135.5,177.5 Z"/></g>
<g><path style="opacity:1" fill="#191a1d" d="M 125.5,180.5 C 123.222,181.713 120.888,183.713 118.5,186.5C 118.174,190.216 119.007,193.882 121,197.5C 121.687,193.42 122.687,189.42 124,185.5C 124.499,190.155 124.666,194.821 124.5,199.5C 121.5,199.5 118.5,199.5 115.5,199.5C 114.986,197.383 114.653,195.216 114.5,193C 115.699,189.329 116.533,185.496 117,181.5C 121.002,177.452 124.502,173.118 127.5,168.5C 131.653,170.469 132.653,173.469 130.5,177.5C 128.833,177.5 127.167,177.5 125.5,177.5C 125.5,178.5 125.5,179.5 125.5,180.5 Z"/></g>
<g><path style="opacity:1" fill="#525358" d="M 144.5,180.5 C 145.625,182.129 146.959,183.629 148.5,185C 146.616,185.216 144.949,185.883 143.5,187C 144.777,189.466 144.777,191.966 143.5,194.5C 142.522,194.023 141.689,193.357 141,192.5C 140.009,194.808 139.176,197.141 138.5,199.5C 138.167,199.5 137.833,199.5 137.5,199.5C 136.316,198.312 136.316,197.145 137.5,196C 136.376,195.751 135.376,195.251 134.5,194.5C 135.332,191.839 136.166,189.172 137,186.5C 139.147,185.887 141.314,185.221 143.5,184.5C 142.807,183.482 142.141,182.482 141.5,181.5C 142.609,181.443 143.609,181.11 144.5,180.5 Z"/></g>
<g><path style="opacity:1" fill="#5b5c61" d="M 149.5,183.5 C 151.39,183.297 152.89,183.963 154,185.5C 154.333,184.833 154.667,184.167 155,183.5C 155.785,185.286 156.951,186.786 158.5,188C 157.552,188.483 156.552,188.649 155.5,188.5C 154.769,195.435 153.936,195.769 153,189.5C 152.111,190.888 151.611,190.722 151.5,189C 154.39,187.108 154.056,186.275 150.5,186.5C 150.61,189.059 149.944,191.392 148.5,193.5C 147.28,193.113 146.613,192.28 146.5,191C 147.035,189.463 147.368,187.963 147.5,186.5C 148.251,187.376 148.751,188.376 149,189.5C 149.495,187.527 149.662,185.527 149.5,183.5 Z"/></g>
<g><path style="opacity:1" fill="#54565c" d="M 89.5,196.5 C 89.5,197.5 89.5,198.5 89.5,199.5C 85.4099,199.733 84.7432,197.899 87.5,194C 86.5388,191.424 85.0388,189.257 83,187.5C 83.6847,190.926 84.1847,194.926 84.5,199.5C 83.5,199.5 82.5,199.5 81.5,199.5C 81.1586,195.291 80.492,191.125 79.5,187C 79.528,185.93 79.8614,185.097 80.5,184.5C 80.7828,185.289 81.2828,185.956 82,186.5C 82.4955,184.527 82.6621,182.527 82.5,180.5C 83.609,180.443 84.609,180.11 85.5,179.5C 86.42,184.468 88.2533,184.801 91,180.5C 91.3333,181.167 91.6667,181.833 92,182.5C 93,179.5 94,176.5 95,173.5C 95.3333,173.833 95.6667,174.167 96,174.5C 99.7917,170.939 103.125,166.939 106,162.5C 104.415,173.159 101.415,183.493 97,193.5C 96.6667,193.167 96.3333,192.833 96,192.5C 94.2858,196.221 91.9525,196.887 89,194.5C 88.3083,195.437 88.475,196.103 89.5,196.5 Z"/></g>
<g><path style="opacity:1" fill="#34363b" d="M 82.5,159.5 C 82.3691,160.376 82.7025,161.043 83.5,161.5C 84.5178,160.807 85.5178,160.141 86.5,159.5C 86.4431,160.609 86.1098,161.609 85.5,162.5C 84.391,162.557 83.391,162.89 82.5,163.5C 81.6457,168.236 80.3123,173.569 78.5,179.5C 78.4365,181.514 79.1032,183.181 80.5,184.5C 79.8614,185.097 79.528,185.93 79.5,187C 80.492,191.125 81.1586,195.291 81.5,199.5C 80.1667,199.5 78.8333,199.5 77.5,199.5C 76.0265,197.039 76.1932,194.706 78,192.5C 78.3333,193.833 78.6667,195.167 79,196.5C 79.1667,195.667 79.3333,194.833 79.5,194C 79.0027,188.655 78.0027,184.821 76.5,182.5C 78.0808,171.575 78.9142,160.575 79,149.5C 79.3333,148.833 79.6667,148.167 80,147.5C 79.8982,151.956 80.7316,155.956 82.5,159.5 Z"/></g>
<g><path style="opacity:1" fill="#2d2e32" d="M 135.5,177.5 C 136.5,177.5 137.5,177.5 138.5,177.5C 138.34,179.199 138.506,180.866 139,182.5C 139.671,181.748 140.504,181.414 141.5,181.5C 142.141,182.482 142.807,183.482 143.5,184.5C 141.314,185.221 139.147,185.887 137,186.5C 136.166,189.172 135.332,191.839 134.5,194.5C 135.376,195.251 136.376,195.751 137.5,196C 136.316,197.145 136.316,198.312 137.5,199.5C 133.5,199.5 129.5,199.5 125.5,199.5C 125.618,196.312 126.451,193.312 128,190.5C 128.333,192.833 128.667,195.167 129,197.5C 129.784,194.24 129.617,191.073 128.5,188C 129.466,185.901 130.8,184.068 132.5,182.5C 131.54,181.188 131.706,179.854 133,178.5C 135.732,186.313 136.565,185.98 135.5,177.5 Z"/></g>
<g><path style="opacity:1" fill="#a1a1a1" d="M 109.5,207.5 C 111.924,207.192 114.257,207.526 116.5,208.5C 120.098,218.128 123.598,227.795 127,237.5C 128.419,238.46 129.919,239.293 131.5,240C 125.833,240.667 120.167,240.667 114.5,240C 118.564,239.582 120.064,237.415 119,233.5C 118.163,231.649 117.329,229.816 116.5,228C 112.909,227.211 109.409,227.378 106,228.5C 104.277,231.772 103.777,235.106 104.5,238.5C 105.795,239.098 107.128,239.598 108.5,240C 104.129,240.828 99.7953,240.661 95.5,239.5C 97.7092,238.937 99.2092,237.604 100,235.5C 103.46,226.251 106.627,216.918 109.5,207.5 Z"/></g>
<g><path style="opacity:1" fill="#a8a8a8" d="M 133.5,207.5 C 138.214,207.173 142.88,207.507 147.5,208.5C 146.372,209.262 145.205,209.929 144,210.5C 143.333,219.5 143.333,228.5 144,237.5C 145.205,238.071 146.372,238.738 147.5,239.5C 142.833,240.833 138.167,240.833 133.5,239.5C 134.628,238.738 135.795,238.071 137,237.5C 137.667,228.5 137.667,219.5 137,210.5C 135.271,210.026 134.105,209.026 133.5,207.5 Z"/></g>
<g><path style="opacity:1" fill="#181818" d="M 110.5,215.5 C 111.376,215.369 112.043,215.702 112.5,216.5C 113.305,218.915 114.305,221.249 115.5,223.5C 112.833,224.833 110.167,224.833 107.5,223.5C 108.508,220.805 109.508,218.138 110.5,215.5 Z"/></g>
</svg>
