<?xml version="1.0" encoding="UTF-8"?>
<!DOCTYPE svg PUBLIC "-//W3C//DTD SVG 1.1//EN" "http://www.w3.org/Graphics/SVG/1.1/DTD/svg11.dtd">
<svg xmlns="http://www.w3.org/2000/svg" version="1.1" width="246px" height="256px" style="shape-rendering:geometricPrecision; text-rendering:geometricPrecision; image-rendering:optimizeQuality; fill-rule:evenodd; clip-rule:evenodd" xmlns:xlink="http://www.w3.org/1999/xlink">
<g><path style="opacity:1" fill="#0d0d0d" d="M -0.5,-0.5 C 81.5,-0.5 163.5,-0.5 245.5,-0.5C 245.5,84.8333 245.5,170.167 245.5,255.5C 163.5,255.5 81.5,255.5 -0.5,255.5C -0.5,170.167 -0.5,84.8333 -0.5,-0.5 Z"/></g>
<g><path style="opacity:1" fill="#9e9e9e" d="M 49.5,8.5 C 55.9983,8.08152 62.3316,8.74819 68.5,10.5C 68.6641,13.1873 68.4974,15.854 68,18.5C 62.0745,9.13534 55.0745,8.13534 47,15.5C 44.8289,22.2799 45.1622,28.9465 48,35.5C 56.1036,42.7005 63.2702,41.7005 69.5,32.5C 69.8333,32.8333 70.1667,33.1667 70.5,33.5C 69.3052,35.7513 68.3052,38.0846 67.5,40.5C 56.8177,44.7709 47.651,42.7709 40,34.5C 35.1535,22.8706 38.3202,14.204 49.5,8.5 Z"/></g>
<g><path style="opacity:1" fill="#a1a1a1" d="M 87.5,8.5 C 98.9029,6.3349 107.07,10.3349 112,20.5C 112.285,36.9772 104.118,44.1438 87.5,42C 75.179,36.3671 72.0124,27.5338 78,15.5C 80.7901,12.535 83.9567,10.2016 87.5,8.5 Z"/></g>
<g><path style="opacity:1" fill="#a0a0a0" d="M 191.5,8.5 C 196.193,8.54011 200.859,8.87344 205.5,9.5C 205.972,15.636 204.639,16.4694 201.5,12C 198.97,10.5783 196.303,10.245 193.5,11C 192.424,12.7261 192.257,14.5594 193,16.5C 196.815,20.0716 200.815,23.4049 205,26.5C 209.369,33.5183 207.869,38.685 200.5,42C 195.816,42.4614 191.149,42.2947 186.5,41.5C 186.192,39.076 186.526,36.7427 187.5,34.5C 189.04,36.3868 190.707,38.2201 192.5,40C 199.49,42.0051 202.324,39.5051 201,32.5C 196.667,28.8333 192.333,25.1667 188,21.5C 185.325,16.011 186.492,11.6776 191.5,8.5 Z"/></g>
<g><path style="opacity:1" fill="#a3a3a3" d="M 140.5,9.5 C 140.802,12.0593 140.468,14.3926 139.5,16.5C 139.67,15.1779 139.337,14.0113 138.5,13C 135.183,12.5017 131.85,12.335 128.5,12.5C 128.5,16.1667 128.5,19.8333 128.5,23.5C 132.607,24.1504 136.107,23.1504 139,20.5C 139.667,23.8333 139.667,27.1667 139,30.5C 138.535,29.0692 137.701,27.9025 136.5,27C 133.854,26.5026 131.187,26.3359 128.5,26.5C 128.334,30.5138 128.501,34.5138 129,38.5C 135.844,41.3151 140.511,39.3151 143,32.5C 143.044,35.4752 142.877,38.4752 142.5,41.5C 133.318,41.8266 124.318,41.4933 115.5,40.5C 117.467,40.7394 119.301,40.4061 121,39.5C 121.667,30.5 121.667,21.5 121,12.5C 119.829,11.1068 118.329,10.2735 116.5,10C 124.493,9.50029 132.493,9.33362 140.5,9.5 Z"/></g>
<g><path style="opacity:1" fill="#a5a5a5" d="M 146.5,10.5 C 151.316,9.35034 156.316,9.18368 161.5,10C 159.671,10.2735 158.171,11.1068 157,12.5C 156.333,19.1667 156.333,25.8333 157,32.5C 160.182,39.4978 165.349,41.3311 172.5,38C 174.487,36.6811 175.654,34.8477 176,32.5C 176.667,25.8333 176.667,19.1667 176,12.5C 174.829,11.1068 173.329,10.2735 171.5,10C 175.5,9.33333 179.5,9.33333 183.5,10C 182.234,10.3095 181.067,10.8095 180,11.5C 179.667,18.5 179.333,25.5 179,32.5C 177.045,39.9483 172.212,43.2816 164.5,42.5C 158.501,42.8994 154.001,40.5661 151,35.5C 150.667,27.8333 150.333,20.1667 150,12.5C 149.184,11.1772 148.017,10.5106 146.5,10.5 Z"/></g>
<g><path style="opacity:1" fill="#111111" d="M 89.5,10.5 C 97.1536,9.98811 102.32,13.3214 105,20.5C 106.999,28.8514 104.499,35.3514 97.5,40C 88.5426,40.722 83.3759,36.5553 82,27.5C 80.7416,20.0891 83.2416,14.4225 89.5,10.5 Z"/></g>
<g><path style="opacity:1" fill="#686868" d="M 140.5,9.5 C 141.8,12.0241 141.8,14.6908 140.5,17.5C 139.893,17.3764 139.56,17.0431 139.5,16.5C 140.468,14.3926 140.802,12.0593 140.5,9.5 Z"/></g>
<g><path style="opacity:1" fill="#595959" d="M 115.5,40.5 C 124.318,41.4933 133.318,41.8266 142.5,41.5C 133.325,42.8222 123.992,42.8222 114.5,41.5C 114.624,40.8933 114.957,40.56 115.5,40.5 Z"/></g>
<g><path style="opacity:1" fill="#3e2818" d="M 101.5,57.5 C 102.568,56.5655 103.901,56.2322 105.5,56.5C 105.215,58.288 105.548,59.9547 106.5,61.5C 108.333,59.8507 110,58.1841 111.5,56.5C 122.5,56.5 133.5,56.5 144.5,56.5C 144.414,57.4959 144.748,58.3292 145.5,59C 145,59.1667 144.5,59.3333 144,59.5C 140.819,58.2103 137.652,58.2103 134.5,59.5C 133.312,58.16 131.812,57.4934 130,57.5C 127.863,58.0767 125.696,58.41 123.5,58.5C 122.007,59.4451 120.507,60.4451 119,61.5C 117.739,61.2409 116.739,60.5742 116,59.5C 116.695,64.6302 114.529,67.6302 109.5,68.5C 111.229,70.8511 111.896,73.5178 111.5,76.5C 110.448,76.6495 109.448,76.4828 108.5,76C 107.458,74.082 106.292,72.2487 105,70.5C 105.813,66.158 105.646,61.8246 104.5,57.5C 103.5,57.5 102.5,57.5 101.5,57.5 Z"/></g>
<g><path style="opacity:1" fill="#4e3826" d="M 144.5,56.5 C 148.167,56.5 151.833,56.5 155.5,56.5C 155.631,57.3764 155.298,58.0431 154.5,58.5C 153.604,57.4937 152.938,57.4937 152.5,58.5C 156.306,61.3947 159.64,64.728 162.5,68.5C 162.333,68.8333 162.167,69.1667 162,69.5C 160.438,67.5661 158.605,65.8994 156.5,64.5C 155.911,66.4812 156.245,68.4812 157.5,70.5C 155.779,72.6943 153.445,73.861 150.5,74C 151.448,74.4828 152.448,74.6495 153.5,74.5C 153.715,76.1788 153.048,77.1788 151.5,77.5C 152.85,76.3501 152.684,75.6834 151,75.5C 147.744,76.4221 145.411,78.4221 144,81.5C 141.904,80.2845 142.071,79.4512 144.5,79C 143.044,78.5774 142.544,77.7441 143,76.5C 143.414,76.9574 143.914,77.2907 144.5,77.5C 145.354,76.4783 146.354,75.6449 147.5,75C 147.018,73.9916 146.852,72.825 147,71.5C 146.08,71.0698 145.247,70.7365 144.5,70.5C 145.628,69.7379 146.795,69.0712 148,68.5C 149.888,71.3787 152.388,72.0453 155.5,70.5C 153.543,68.5152 151.21,67.0152 148.5,66C 150.026,64.1129 152.026,63.1129 154.5,63C 154.167,62.6667 153.833,62.3333 153.5,62C 151.355,60.0457 149.188,58.879 147,58.5C 146.015,59.8141 144.848,60.8141 143.5,61.5C 138.187,60.6381 132.854,60.4715 127.5,61C 124.999,62.4177 125.332,63.4177 128.5,64C 127.095,65.2692 125.429,65.7692 123.5,65.5C 123.44,69.3273 124.607,69.994 127,67.5C 127.399,67.7284 127.565,68.0618 127.5,68.5C 126.154,70.5368 124.82,72.5368 123.5,74.5C 123.762,73.0222 123.429,71.6888 122.5,70.5C 119.282,73.4132 117.615,77.0799 117.5,81.5C 116.423,82.7051 115.09,83.3718 113.5,83.5C 116.012,78.3903 118.179,72.7236 120,66.5C 122.833,64.2499 123.999,61.5832 123.5,58.5C 125.696,58.41 127.863,58.0767 130,57.5C 131.812,57.4934 133.312,58.16 134.5,59.5C 137.652,58.2103 140.819,58.2103 144,59.5C 144.5,59.3333 145,59.1667 145.5,59C 144.748,58.3292 144.414,57.4959 144.5,56.5 Z"/></g>
<g><path style="opacity:1" fill="#3f291a" d="M 80.5,56.5 C 82.9323,57.9582 85.5989,59.1249 88.5,60C 87.2513,61.8241 86.0847,61.6574 85,59.5C 84.5,60.6667 83.6667,61.5 82.5,62C 85.334,62.0454 87.834,62.8787 90,64.5C 92.589,60.6899 95.4223,60.5232 98.5,64C 94.5719,65.0922 92.2386,67.5922 91.5,71.5C 93.9424,71.3537 94.6091,72.187 93.5,74C 95.7443,76.3486 96.9109,75.8486 97,72.5C 98.1562,73.9928 98.9896,73.8261 99.5,72C 98.3906,69.9534 97.7239,67.7867 97.5,65.5C 98.9778,65.238 100.311,65.5713 101.5,66.5C 102.097,69.9713 102.764,73.3046 103.5,76.5C 103.769,78.4286 103.269,80.0953 102,81.5C 101.667,80.8333 101.333,80.1667 101,79.5C 100.943,82.8511 100.109,85.8511 98.5,88.5C 97.0324,85.7223 96.199,82.7223 96,79.5C 94.0638,76.1129 91.5638,75.6129 88.5,78C 87.1068,79.1711 86.2735,80.6711 86,82.5C 84.6764,81.1198 83.3431,80.7865 82,81.5C 81.231,84.0991 81.3977,86.5991 82.5,89C 79.9405,89.227 78.2738,90.5603 77.5,93C 78.448,93.4828 79.448,93.6495 80.5,93.5C 78.722,95.8292 77.722,98.4958 77.5,101.5C 78.3352,106.695 79.6685,111.695 81.5,116.5C 80.8333,116.167 80.1667,115.833 79.5,115.5C 76.6453,110.243 75.9786,110.743 77.5,117C 75.4354,120.804 75.4354,124.471 77.5,128C 77.5602,141.767 77.3936,155.601 77,169.5C 75.2575,179.445 75.0908,189.445 76.5,199.5C 75.8333,199.5 75.1667,199.5 74.5,199.5C 74.5,151.833 74.5,104.167 74.5,56.5C 76.5,56.5 78.5,56.5 80.5,56.5 Z"/></g>
<g><path style="opacity:1" fill="#3b2516" d="M 143.5,61.5 C 145.199,61.3398 146.866,61.5065 148.5,62C 149.833,62.6667 149.833,63.3333 148.5,64C 147.551,64.6172 146.718,64.4506 146,63.5C 140.409,64.8753 134.909,66.542 129.5,68.5C 128.833,68.5 128.167,68.5 127.5,68.5C 127.565,68.0618 127.399,67.7284 127,67.5C 124.607,69.994 123.44,69.3273 123.5,65.5C 125.429,65.7692 127.095,65.2692 128.5,64C 125.332,63.4177 124.999,62.4177 127.5,61C 132.854,60.4715 138.187,60.6381 143.5,61.5 Z"/></g>
<g><path style="opacity:1" fill="#68513b" d="M 155.5,56.5 C 155.833,56.5 156.167,56.5 156.5,56.5C 160.168,61.0067 163.668,65.6734 167,70.5C 165.941,65.9204 163.441,62.0871 159.5,59C 163.055,58.2172 165.222,60.0506 166,64.5C 166.497,61.854 166.664,59.1873 166.5,56.5C 166.833,56.5 167.167,56.5 167.5,56.5C 168.47,67.4382 169.303,67.7715 170,57.5C 170.5,63.8246 170.666,70.1579 170.5,76.5C 169.778,76.0825 169.278,75.4158 169,74.5C 168.82,76.4884 168.986,78.4884 169.5,80.5C 168.442,79.3998 167.608,78.0664 167,76.5C 166.48,78.2889 166.813,79.9556 168,81.5C 168.667,86.8333 168.667,92.1667 168,97.5C 167.667,93.1667 167.333,88.8333 167,84.5C 166.351,87.9374 165.851,88.104 165.5,85C 165.645,83.7741 165.978,82.6074 166.5,81.5C 164.853,78.6077 163.353,75.6077 162,72.5C 161.292,71.6195 160.458,70.9528 159.5,70.5C 158.833,70.5 158.167,70.5 157.5,70.5C 156.245,68.4812 155.911,66.4812 156.5,64.5C 158.605,65.8994 160.438,67.5661 162,69.5C 162.167,69.1667 162.333,68.8333 162.5,68.5C 159.64,64.728 156.306,61.3947 152.5,58.5C 152.938,57.4937 153.604,57.4937 154.5,58.5C 155.298,58.0431 155.631,57.3764 155.5,56.5 Z"/></g>
<g><path style="opacity:1" fill="#402a1a" d="M 156.5,56.5 C 159.833,56.5 163.167,56.5 166.5,56.5C 166.664,59.1873 166.497,61.854 166,64.5C 165.222,60.0506 163.055,58.2172 159.5,59C 163.441,62.0871 165.941,65.9204 167,70.5C 163.668,65.6734 160.168,61.0067 156.5,56.5 Z"/></g>
<g><path style="opacity:1" fill="#705943" d="M 85.5,63.5 C 86.6266,64.1217 87.6266,64.955 88.5,66C 87.7362,68.0693 87.2362,70.236 87,72.5C 86.0853,71.6721 85.4186,70.6721 85,69.5C 83.8732,72.3771 83.2065,75.3771 83,78.5C 82.3333,77.1667 81.6667,77.1667 81,78.5C 77.2201,72.834 78.2201,68.1674 84,64.5C 85.1068,65.7119 85.6068,65.3786 85.5,63.5 Z"/></g>
<g><path style="opacity:1" fill="#7f6951" d="M 151.5,77.5 C 148.911,78.4194 146.911,80.086 145.5,82.5C 143.004,85.4095 143.004,88.5761 145.5,92C 144.906,92.4643 144.239,92.631 143.5,92.5C 142.508,87.2401 141.674,81.9068 141,76.5C 140.503,79.146 140.336,81.8127 140.5,84.5C 138.839,80.6741 136.005,78.0074 132,76.5C 130.317,77.1765 130.15,78.1765 131.5,79.5C 130.883,79.6107 130.383,79.944 130,80.5C 129.503,82.8098 129.337,85.1432 129.5,87.5C 131.527,87.6621 133.527,87.4955 135.5,87C 135.619,85.8552 135.952,84.6885 136.5,83.5C 138.283,88.2611 136.616,91.2611 131.5,92.5C 130.327,90.4959 128.66,88.9959 126.5,88C 128.932,86.9125 128.598,86.4125 125.5,86.5C 125.387,89.0488 126.054,91.3821 127.5,93.5C 127.291,94.086 126.957,94.586 126.5,95C 129.682,96.6859 129.849,98.1859 127,99.5C 125.699,98.9019 124.865,97.9019 124.5,96.5C 125.326,95.549 125.492,94.549 125,93.5C 124.014,94.1712 122.847,94.1712 121.5,93.5C 122.125,89.1817 122.625,84.515 123,79.5C 125.033,75.9664 127.866,73.2997 131.5,71.5C 130.807,70.4822 130.141,69.4822 129.5,68.5C 134.909,66.542 140.409,64.8753 146,63.5C 146.718,64.4506 147.551,64.6172 148.5,64C 149.833,63.3333 149.833,62.6667 148.5,62C 146.866,61.5065 145.199,61.3398 143.5,61.5C 144.848,60.8141 146.015,59.8141 147,58.5C 149.188,58.879 151.355,60.0457 153.5,62C 153.833,62.3333 154.167,62.6667 154.5,63C 152.026,63.1129 150.026,64.1129 148.5,66C 151.21,67.0152 153.543,68.5152 155.5,70.5C 152.388,72.0453 149.888,71.3787 148,68.5C 146.795,69.0712 145.628,69.7379 144.5,70.5C 145.247,70.7365 146.08,71.0698 147,71.5C 146.852,72.825 147.018,73.9916 147.5,75C 146.354,75.6449 145.354,76.4783 144.5,77.5C 143.914,77.2907 143.414,76.9574 143,76.5C 142.544,77.7441 143.044,78.5774 144.5,79C 142.071,79.4512 141.904,80.2845 144,81.5C 145.411,78.4221 147.744,76.4221 151,75.5C 152.684,75.6834 152.85,76.3501 151.5,77.5 Z"/></g>
<g><path style="opacity:1" fill="#ab9375" d="M 140.5,84.5 C 140.793,87.7543 140.126,90.7543 138.5,93.5C 136.745,94.0722 135.078,94.9055 133.5,96C 132.835,99.4207 131.501,99.2541 129.5,95.5C 130.193,94.4822 130.859,93.4822 131.5,92.5C 136.616,91.2611 138.283,88.2611 136.5,83.5C 135.055,81.9373 133.389,80.604 131.5,79.5C 130.15,78.1765 130.317,77.1765 132,76.5C 136.005,78.0074 138.839,80.6741 140.5,84.5 Z"/></g>
<g><path style="opacity:1" fill="#9f866b" d="M 97.5,92.5 C 97.4326,91.0413 97.7659,89.7079 98.5,88.5C 100.109,85.8511 100.943,82.8511 101,79.5C 101.333,80.1667 101.667,80.8333 102,81.5C 103.269,80.0953 103.769,78.4286 103.5,76.5C 103.905,75.4502 104.571,75.4502 105.5,76.5C 108.77,80.9383 108.103,84.6049 103.5,87.5C 102.571,88.6888 102.238,90.0222 102.5,91.5C 100.708,91.366 99.0418,91.6993 97.5,92.5 Z"/></g>
<g><path style="opacity:1" fill="#3b2516" d="M 157.5,70.5 C 158.167,70.5 158.833,70.5 159.5,70.5C 163.693,80.5775 164.359,90.9108 161.5,101.5C 162.582,101.749 163.915,101.915 165.5,102C 164.402,102.77 164.402,103.603 165.5,104.5C 165.328,105.492 165.662,106.158 166.5,106.5C 167.638,109.304 167.805,112.304 167,115.5C 165.348,113.25 164.848,110.917 165.5,108.5C 165.167,107.5 164.5,106.833 163.5,106.5C 161.922,108.653 160.588,110.986 159.5,113.5C 158.518,114.141 157.518,114.807 156.5,115.5C 155.828,114.051 155.161,112.718 154.5,111.5C 157.723,104.162 159.723,96.4957 160.5,88.5C 160.167,86.5 159.833,84.5 159.5,82.5C 158.201,83.09 157.368,84.09 157,85.5C 155.484,82.9485 154.651,83.2819 154.5,86.5C 152.852,88.4293 151.185,90.4293 149.5,92.5C 148.675,93.3857 147.675,93.719 146.5,93.5C 145.989,90.9716 145.322,88.4716 144.5,86C 144.648,84.7441 144.982,83.5774 145.5,82.5C 146.911,80.086 148.911,78.4194 151.5,77.5C 153.048,77.1788 153.715,76.1788 153.5,74.5C 152.448,74.6495 151.448,74.4828 150.5,74C 153.445,73.861 155.779,72.6943 157.5,70.5 Z"/></g>
<g><path style="opacity:1" fill="#241a13" d="M 111.5,56.5 C 110,58.1841 108.333,59.8507 106.5,61.5C 105.548,59.9547 105.215,58.288 105.5,56.5C 103.901,56.2322 102.568,56.5655 101.5,57.5C 100.109,62.5495 98.1091,62.5495 95.5,57.5C 94.3112,56.5713 92.9778,56.238 91.5,56.5C 91.557,60.1331 90.557,60.2998 88.5,57C 85.854,56.5026 83.1873,56.3359 80.5,56.5C 78.5,56.5 76.5,56.5 74.5,56.5C 74.5,104.167 74.5,151.833 74.5,199.5C 73.5012,151.67 73.1678,103.67 73.5,55.5C 86.3443,55.1713 99.011,55.5046 111.5,56.5 Z"/></g>
<g><path style="opacity:1" fill="#59422e" d="M 131.5,79.5 C 133.389,80.604 135.055,81.9373 136.5,83.5C 135.952,84.6885 135.619,85.8552 135.5,87C 133.527,87.4955 131.527,87.6621 129.5,87.5C 129.337,85.1432 129.503,82.8098 130,80.5C 130.383,79.944 130.883,79.6107 131.5,79.5 Z"/></g>
<g><path style="opacity:1" fill="#a99073" d="M 127.5,68.5 C 128.167,68.5 128.833,68.5 129.5,68.5C 130.141,69.4822 130.807,70.4822 131.5,71.5C 127.866,73.2997 125.033,75.9664 123,79.5C 122.625,84.515 122.125,89.1817 121.5,93.5C 122.903,96.2999 121.903,97.7999 118.5,98C 117.638,100.734 116.805,100.901 116,98.5C 114.566,100.136 112.733,101.136 110.5,101.5C 109.537,101.03 109.537,100.363 110.5,99.5C 112.451,98.2842 113.951,96.6175 115,94.5C 118.171,87.8425 121.004,81.1759 123.5,74.5C 124.82,72.5368 126.154,70.5368 127.5,68.5 Z"/></g>
<g><path style="opacity:1" fill="#664f3a" d="M 98.5,88.5 C 97.7659,89.7079 97.4326,91.0413 97.5,92.5C 96.8333,92.5 96.1667,92.5 95.5,92.5C 95.665,89.1501 95.4983,85.8168 95,82.5C 92.1084,83.8419 90.7751,86.1752 91,89.5C 90.6667,88.1667 90.3333,86.8333 90,85.5C 87.8762,86.6217 86.0429,88.1217 84.5,90C 85.893,92.1781 87.5596,93.1781 89.5,93C 88.7562,94.0386 87.7562,94.5386 86.5,94.5C 84.6208,93.6586 82.6208,93.3253 80.5,93.5C 79.448,93.6495 78.448,93.4828 77.5,93C 78.2738,90.5603 79.9405,89.227 82.5,89C 81.3977,86.5991 81.231,84.0991 82,81.5C 83.3431,80.7865 84.6764,81.1198 86,82.5C 86.2735,80.6711 87.1068,79.1711 88.5,78C 91.5638,75.6129 94.0638,76.1129 96,79.5C 96.199,82.7223 97.0324,85.7223 98.5,88.5 Z"/></g>
<g><path style="opacity:1" fill="#543e2b" d="M 143.5,92.5 C 143.414,93.4959 143.748,94.3292 144.5,95C 145.951,94.7374 147.284,94.9041 148.5,95.5C 149.145,96.7321 149.311,98.0654 149,99.5C 150.729,99.9743 151.895,100.974 152.5,102.5C 150.516,102.617 148.85,101.95 147.5,100.5C 146.808,101.025 146.308,101.692 146,102.5C 144.644,101.62 143.144,101.286 141.5,101.5C 141.665,98.1501 141.498,94.8168 141,91.5C 140.647,94.1525 139.48,96.1525 137.5,97.5C 136.957,97.44 136.624,97.1067 136.5,96.5C 137.612,95.7348 138.279,94.7348 138.5,93.5C 140.126,90.7543 140.793,87.7543 140.5,84.5C 140.336,81.8127 140.503,79.146 141,76.5C 141.674,81.9068 142.508,87.2401 143.5,92.5 Z"/></g>
<g><path style="opacity:1" fill="#68533e" d="M 145.5,82.5 C 144.982,83.5774 144.648,84.7441 144.5,86C 145.322,88.4716 145.989,90.9716 146.5,93.5C 147.675,93.719 148.675,93.3857 149.5,92.5C 151.185,90.4293 152.852,88.4293 154.5,86.5C 155.735,86.7214 156.735,87.3881 157.5,88.5C 158.251,87.624 158.751,86.624 159,85.5C 159.157,87.9951 159.324,90.3284 159.5,92.5C 157.665,93.4277 157.332,94.5944 158.5,96C 157.706,99.2931 155.706,101.46 152.5,102.5C 151.895,100.974 150.729,99.9743 149,99.5C 149.311,98.0654 149.145,96.7321 148.5,95.5C 147.284,94.9041 145.951,94.7374 144.5,95C 143.748,94.3292 143.414,93.4959 143.5,92.5C 144.239,92.631 144.906,92.4643 145.5,92C 143.004,88.5761 143.004,85.4095 145.5,82.5 Z"/></g>
<g><path style="opacity:1" fill="#3e2818" d="M 123.5,74.5 C 121.004,81.1759 118.171,87.8425 115,94.5C 113.951,96.6175 112.451,98.2842 110.5,99.5C 108.908,98.3984 108.075,99.065 108,101.5C 106.074,103.539 103.907,105.206 101.5,106.5C 100.417,106.539 99.4168,106.873 98.5,107.5C 97.2343,103.692 97.5676,100.025 99.5,96.5C 100.882,95.1995 102.548,94.3661 104.5,94C 107.399,90.3354 110.399,86.8354 113.5,83.5C 115.09,83.3718 116.423,82.7051 117.5,81.5C 117.615,77.0799 119.282,73.4132 122.5,70.5C 123.429,71.6888 123.762,73.0222 123.5,74.5 Z"/></g>
<g><path style="opacity:1" fill="#816a51" d="M 170.5,76.5 C 170.667,90.504 170.5,104.504 170,118.5C 169.617,119.056 169.117,119.389 168.5,119.5C 169.573,113.885 169.74,108.218 169,102.5C 168.52,104.133 167.687,105.466 166.5,106.5C 165.662,106.158 165.328,105.492 165.5,104.5C 167.48,103.152 168.647,101.152 169,98.5C 169.499,92.5092 169.666,86.5092 169.5,80.5C 168.986,78.4884 168.82,76.4884 169,74.5C 169.278,75.4158 169.778,76.0825 170.5,76.5 Z"/></g>
<g><path style="opacity:1" fill="#553f2b" d="M 159.5,70.5 C 160.458,70.9528 161.292,71.6195 162,72.5C 163.353,75.6077 164.853,78.6077 166.5,81.5C 165.978,82.6074 165.645,83.7741 165.5,85C 165.851,88.104 166.351,87.9374 167,84.5C 167.333,88.8333 167.667,93.1667 168,97.5C 168.667,92.1667 168.667,86.8333 168,81.5C 166.813,79.9556 166.48,78.2889 167,76.5C 167.608,78.0664 168.442,79.3998 169.5,80.5C 169.666,86.5092 169.499,92.5092 169,98.5C 168.647,101.152 167.48,103.152 165.5,104.5C 164.402,103.603 164.402,102.77 165.5,102C 163.915,101.915 162.582,101.749 161.5,101.5C 164.359,90.9108 163.693,80.5775 159.5,70.5 Z"/></g>
<g><path style="opacity:1" fill="#7a644e" d="M 80.5,93.5 C 82.6208,93.3253 84.6208,93.6586 86.5,94.5C 85.5924,96.8911 85.4257,99.2244 86,101.5C 84.0186,99.6409 83.0186,97.3076 83,94.5C 82.5983,95.8721 82.0983,97.2054 81.5,98.5C 83.6324,101.405 83.9657,104.405 82.5,107.5C 81.4181,105.661 80.5847,103.661 80,101.5C 79.2303,102.598 78.397,102.598 77.5,101.5C 77.722,98.4958 78.722,95.8292 80.5,93.5 Z"/></g>
<g><path style="opacity:1" fill="#4e3825" d="M 95.5,92.5 C 93.1962,96.1155 91.1962,99.7822 89.5,103.5C 87.716,104.574 86.5494,106.24 86,108.5C 85.3741,106.009 84.5407,106.009 83.5,108.5C 82.8933,108.376 82.56,108.043 82.5,107.5C 83.9657,104.405 83.6324,101.405 81.5,98.5C 82.0983,97.2054 82.5983,95.8721 83,94.5C 83.0186,97.3076 84.0186,99.6409 86,101.5C 85.4257,99.2244 85.5924,96.8911 86.5,94.5C 87.7562,94.5386 88.7562,94.0386 89.5,93C 87.5596,93.1781 85.893,92.1781 84.5,90C 86.0429,88.1217 87.8762,86.6217 90,85.5C 90.3333,86.8333 90.6667,88.1667 91,89.5C 90.7751,86.1752 92.1084,83.8419 95,82.5C 95.4983,85.8168 95.665,89.1501 95.5,92.5 Z"/></g>
<g><path style="opacity:1" fill="#967d61" d="M 95.5,92.5 C 96.1667,92.5 96.8333,92.5 97.5,92.5C 96.2086,93.4728 96.2086,94.4728 97.5,95.5C 94.3876,100.416 92.221,105.416 91,110.5C 89.3499,113.106 87.8499,113.106 86.5,110.5C 88.3122,108.539 89.3122,106.206 89.5,103.5C 91.1962,99.7822 93.1962,96.1155 95.5,92.5 Z"/></g>
<g><path style="opacity:1" fill="#543d2a" d="M 99.5,96.5 C 97.5676,100.025 97.2343,103.692 98.5,107.5C 99.4168,106.873 100.417,106.539 101.5,106.5C 99.4707,108.858 97.4707,111.192 95.5,113.5C 94.6136,112.224 93.6136,112.224 92.5,113.5C 90.3483,115.162 88.6817,117.162 87.5,119.5C 87.3433,118.127 87.51,116.793 88,115.5C 90.3785,113.291 92.5452,110.958 94.5,108.5C 95.6497,105.253 96.483,101.92 97,98.5C 97.7083,97.6195 98.5416,96.9528 99.5,96.5 Z"/></g>
<g><path style="opacity:1" fill="#755d46" d="M 80.5,56.5 C 83.1873,56.3359 85.854,56.5026 88.5,57C 90.557,60.2998 91.557,60.1331 91.5,56.5C 92.9778,56.238 94.3112,56.5713 95.5,57.5C 98.1091,62.5495 100.109,62.5495 101.5,57.5C 102.5,57.5 103.5,57.5 104.5,57.5C 105.646,61.8246 105.813,66.158 105,70.5C 106.292,72.2487 107.458,74.082 108.5,76C 109.448,76.4828 110.448,76.6495 111.5,76.5C 111.896,73.5178 111.229,70.8511 109.5,68.5C 114.529,67.6302 116.695,64.6302 116,59.5C 116.739,60.5742 117.739,61.2409 119,61.5C 120.507,60.4451 122.007,59.4451 123.5,58.5C 123.999,61.5832 122.833,64.2499 120,66.5C 118.179,72.7236 116.012,78.3903 113.5,83.5C 110.399,86.8354 107.399,90.3354 104.5,94C 102.548,94.3661 100.882,95.1995 99.5,96.5C 98.5416,96.9528 97.7083,97.6195 97,98.5C 96.483,101.92 95.6497,105.253 94.5,108.5C 92.5452,110.958 90.3785,113.291 88,115.5C 87.51,116.793 87.3433,118.127 87.5,119.5C 87.5,120.167 87.5,120.833 87.5,121.5C 86.5987,122.29 85.9321,123.29 85.5,124.5C 82.9238,126.888 81.9238,129.888 82.5,133.5C 81.0337,134.347 80.2004,135.68 80,137.5C 78.3206,130.181 78.1539,122.848 79.5,115.5C 80.1667,115.833 80.8333,116.167 81.5,116.5C 82.8175,114.249 84.4842,112.249 86.5,110.5C 87.8499,113.106 89.3499,113.106 91,110.5C 92.221,105.416 94.3876,100.416 97.5,95.5C 96.2086,94.4728 96.2086,93.4728 97.5,92.5C 99.0418,91.6993 100.708,91.366 102.5,91.5C 102.238,90.0222 102.571,88.6888 103.5,87.5C 108.103,84.6049 108.77,80.9383 105.5,76.5C 104.571,75.4502 103.905,75.4502 103.5,76.5C 102.764,73.3046 102.097,69.9713 101.5,66.5C 100.311,65.5713 98.9778,65.238 97.5,65.5C 97.7239,67.7867 98.3906,69.9534 99.5,72C 98.9896,73.8261 98.1562,73.9928 97,72.5C 96.9109,75.8486 95.7443,76.3486 93.5,74C 94.6091,72.187 93.9424,71.3537 91.5,71.5C 92.2386,67.5922 94.5719,65.0922 98.5,64C 95.4223,60.5232 92.589,60.6899 90,64.5C 87.834,62.8787 85.334,62.0454 82.5,62C 83.6667,61.5 84.5,60.6667 85,59.5C 86.0847,61.6574 87.2513,61.8241 88.5,60C 85.5989,59.1249 82.9323,57.9582 80.5,56.5 Z"/></g>
<g><path style="opacity:1" fill="#776048" d="M 152.5,102.5 C 151.841,105.408 151.007,105.742 150,103.5C 148.956,104.623 148.29,105.956 148,107.5C 147.035,105.74 145.868,105.406 144.5,106.5C 145.499,109.174 147.166,109.841 149.5,108.5C 150.833,109.833 150.833,111.167 149.5,112.5C 148.808,111.975 148.308,111.308 148,110.5C 147.153,112.193 146.32,113.86 145.5,115.5C 144.154,117.127 142.654,117.794 141,117.5C 137.676,114.846 136.343,111.513 137,107.5C 135.32,108.603 133.82,108.27 132.5,106.5C 130.924,110.128 128.257,112.628 124.5,114C 126.616,113.718 128.783,113.218 131,112.5C 134.043,112.499 134.21,113.332 131.5,115C 132.094,115.464 132.761,115.631 133.5,115.5C 131.9,116.682 131.567,118.015 132.5,119.5C 131.544,121.075 130.877,122.742 130.5,124.5C 127.91,124.396 125.577,125.063 123.5,126.5C 122.833,126.333 122.167,126.167 121.5,126C 124.091,122.589 123.424,121.922 119.5,124C 119.957,124.414 120.291,124.914 120.5,125.5C 117.342,126.25 114.675,127.583 112.5,129.5C 111.178,129.67 110.011,129.337 109,128.5C 107.084,129.928 104.917,130.928 102.5,131.5C 103.167,131.833 103.833,132.167 104.5,132.5C 104.192,133.308 103.692,133.975 103,134.5C 101.732,134.384 100.398,134.051 99,133.5C 97.6218,135.213 95.9552,136.547 94,137.5C 93.3333,138.167 93.3333,138.833 94,139.5C 96.4678,136.743 99.3011,135.41 102.5,135.5C 103.192,136.025 103.692,136.692 104,137.5C 105.153,135.503 106.653,135.17 108.5,136.5C 107.91,137.799 106.91,138.632 105.5,139C 107.422,140.46 108.089,142.127 107.5,144C 105.5,144.333 103.5,144.667 101.5,145C 102.458,146.147 102.125,147.147 100.5,148C 98.8659,148.494 97.1992,148.66 95.5,148.5C 94.9907,147.659 95.6573,147.159 97.5,147C 95.7834,145.441 93.7834,144.608 91.5,144.5C 91.6495,145.552 91.4828,146.552 91,147.5C 89.8549,146.364 88.6883,145.364 87.5,144.5C 88.322,142.611 89.1553,140.611 90,138.5C 90.3333,138.833 90.6667,139.167 91,139.5C 91.2735,137.671 92.1068,136.171 93.5,135C 92.1667,134.333 90.8333,133.667 89.5,133C 91.4812,132.395 91.8146,131.395 90.5,130C 91.7487,128.176 92.9153,128.343 94,130.5C 94.8333,129.667 95.6667,128.833 96.5,128C 94.9991,126.748 93.3325,125.748 91.5,125C 94.4767,124.519 97.1433,123.352 99.5,121.5C 93.2995,120.866 93.2995,119.699 99.5,118C 100.833,117.333 100.833,116.667 99.5,116C 100.931,115.535 102.097,114.701 103,113.5C 104.067,114.191 105.234,114.691 106.5,115C 105.376,115.249 104.376,115.749 103.5,116.5C 102.494,117.396 102.494,118.062 103.5,118.5C 104.446,118.013 105.446,117.68 106.5,117.5C 107.786,117.852 108.619,118.518 109,119.5C 111.086,116.639 113.253,116.306 115.5,118.5C 118.478,118.007 120.811,116.507 122.5,114C 122.167,113.833 121.833,113.667 121.5,113.5C 119.352,114.758 117.185,114.758 115,113.5C 113.418,115.029 111.585,115.529 109.5,115C 111.797,113.84 111.464,112.84 108.5,112C 110.608,111.64 112.608,110.973 114.5,110C 113.476,108.633 113.976,107.8 116,107.5C 117.762,107.944 117.595,108.444 115.5,109C 118.194,110.488 120.528,110.321 122.5,108.5C 123.451,109.326 124.451,109.492 125.5,109C 124.929,107.795 124.262,106.628 123.5,105.5C 120.078,108.29 119.411,108.123 121.5,105C 120.09,104.632 119.09,103.799 118.5,102.5C 119.991,101.756 121.491,101.09 123,100.5C 124.165,104.341 126.332,105.175 129.5,103C 127.068,101.913 127.402,101.413 130.5,101.5C 130.693,105.449 131.193,105.449 132,101.5C 134.333,101.833 136.667,102.167 139,102.5C 139.167,102.167 139.333,101.833 139.5,101.5C 138.624,100.749 137.624,100.249 136.5,100C 137.252,99.3292 137.586,98.4959 137.5,97.5C 139.48,96.1525 140.647,94.1525 141,91.5C 141.498,94.8168 141.665,98.1501 141.5,101.5C 143.144,101.286 144.644,101.62 146,102.5C 146.308,101.692 146.808,101.025 147.5,100.5C 148.85,101.95 150.516,102.617 152.5,102.5 Z"/></g>
<g><path style="opacity:1" fill="#644d39" d="M 77.5,101.5 C 78.397,102.598 79.2303,102.598 80,101.5C 80.5847,103.661 81.4181,105.661 82.5,107.5C 82.56,108.043 82.8933,108.376 83.5,108.5C 84.5407,106.009 85.3741,106.009 86,108.5C 86.5494,106.24 87.716,104.574 89.5,103.5C 89.3122,106.206 88.3122,108.539 86.5,110.5C 84.4842,112.249 82.8175,114.249 81.5,116.5C 79.6685,111.695 78.3352,106.695 77.5,101.5 Z"/></g>
<g><path style="opacity:1" fill="#4b3523" d="M 154.5,111.5 C 153.207,115.27 150.873,118.27 147.5,120.5C 147.062,120.565 146.728,120.399 146.5,120C 149.366,118.213 149.866,116.046 148,113.5C 147.583,114.756 146.75,115.423 145.5,115.5C 146.32,113.86 147.153,112.193 148,110.5C 148.308,111.308 148.808,111.975 149.5,112.5C 150.833,111.167 150.833,109.833 149.5,108.5C 147.166,109.841 145.499,109.174 144.5,106.5C 145.868,105.406 147.035,105.74 148,107.5C 148.29,105.956 148.956,104.623 150,103.5C 151.007,105.742 151.841,105.408 152.5,102.5C 155.706,101.46 157.706,99.2931 158.5,96C 157.332,94.5944 157.665,93.4277 159.5,92.5C 159.324,90.3284 159.157,87.9951 159,85.5C 158.751,86.624 158.251,87.624 157.5,88.5C 156.735,87.3881 155.735,86.7214 154.5,86.5C 154.651,83.2819 155.484,82.9485 157,85.5C 157.368,84.09 158.201,83.09 159.5,82.5C 159.833,84.5 160.167,86.5 160.5,88.5C 159.723,96.4957 157.723,104.162 154.5,111.5 Z"/></g>
<g><path style="opacity:1" fill="#321b0e" d="M 95.5,113.5 C 95.1075,115.284 94.4408,116.95 93.5,118.5C 92.8501,118.196 92.1835,117.863 91.5,117.5C 90.2393,119.453 89.0726,121.453 88,123.5C 87.5357,122.906 87.369,122.239 87.5,121.5C 87.5,120.833 87.5,120.167 87.5,119.5C 88.6817,117.162 90.3483,115.162 92.5,113.5C 93.6136,112.224 94.6136,112.224 95.5,113.5 Z"/></g>
<g><path style="opacity:1" fill="#8d755b" d="M 131.5,92.5 C 130.859,93.4822 130.193,94.4822 129.5,95.5C 131.501,99.2541 132.835,99.4207 133.5,96C 135.078,94.9055 136.745,94.0722 138.5,93.5C 138.279,94.7348 137.612,95.7348 136.5,96.5C 136.624,97.1067 136.957,97.44 137.5,97.5C 137.586,98.4959 137.252,99.3292 136.5,100C 137.624,100.249 138.624,100.749 139.5,101.5C 139.333,101.833 139.167,102.167 139,102.5C 136.667,102.167 134.333,101.833 132,101.5C 131.193,105.449 130.693,105.449 130.5,101.5C 127.402,101.413 127.068,101.913 129.5,103C 126.332,105.175 124.165,104.341 123,100.5C 121.491,101.09 119.991,101.756 118.5,102.5C 119.09,103.799 120.09,104.632 121.5,105C 119.411,108.123 120.078,108.29 123.5,105.5C 124.262,106.628 124.929,107.795 125.5,109C 124.451,109.492 123.451,109.326 122.5,108.5C 120.528,110.321 118.194,110.488 115.5,109C 117.595,108.444 117.762,107.944 116,107.5C 113.976,107.8 113.476,108.633 114.5,110C 112.608,110.973 110.608,111.64 108.5,112C 111.464,112.84 111.797,113.84 109.5,115C 111.585,115.529 113.418,115.029 115,113.5C 117.185,114.758 119.352,114.758 121.5,113.5C 121.833,113.667 122.167,113.833 122.5,114C 120.811,116.507 118.478,118.007 115.5,118.5C 113.253,116.306 111.086,116.639 109,119.5C 108.619,118.518 107.786,117.852 106.5,117.5C 105.446,117.68 104.446,118.013 103.5,118.5C 102.494,118.062 102.494,117.396 103.5,116.5C 104.376,115.749 105.376,115.249 106.5,115C 105.234,114.691 104.067,114.191 103,113.5C 102.097,114.701 100.931,115.535 99.5,116C 100.833,116.667 100.833,117.333 99.5,118C 93.2995,119.699 93.2995,120.866 99.5,121.5C 97.1433,123.352 94.4767,124.519 91.5,125C 93.3325,125.748 94.9991,126.748 96.5,128C 95.6667,128.833 94.8333,129.667 94,130.5C 92.9153,128.343 91.7487,128.176 90.5,130C 91.8146,131.395 91.4812,132.395 89.5,133C 90.8333,133.667 92.1667,134.333 93.5,135C 92.1068,136.171 91.2735,137.671 91,139.5C 90.6667,139.167 90.3333,138.833 90,138.5C 89.1553,140.611 88.322,142.611 87.5,144.5C 87.1667,144.5 86.8333,144.5 86.5,144.5C 87.0946,141.346 87.0946,138.346 86.5,135.5C 88.2347,129.64 90.568,123.973 93.5,118.5C 94.4408,116.95 95.1075,115.284 95.5,113.5C 97.4707,111.192 99.4707,108.858 101.5,106.5C 103.907,105.206 106.074,103.539 108,101.5C 108.075,99.065 108.908,98.3984 110.5,99.5C 109.537,100.363 109.537,101.03 110.5,101.5C 112.733,101.136 114.566,100.136 116,98.5C 116.805,100.901 117.638,100.734 118.5,98C 121.903,97.7999 122.903,96.2999 121.5,93.5C 122.847,94.1712 124.014,94.1712 125,93.5C 125.492,94.549 125.326,95.549 124.5,96.5C 124.865,97.9019 125.699,98.9019 127,99.5C 129.849,98.1859 129.682,96.6859 126.5,95C 126.957,94.586 127.291,94.086 127.5,93.5C 126.054,91.3821 125.387,89.0488 125.5,86.5C 128.598,86.4125 128.932,86.9125 126.5,88C 128.66,88.9959 130.327,90.4959 131.5,92.5 Z"/></g>
<g><path style="opacity:1" fill="#5f4733" d="M 145.5,115.5 C 146.75,115.423 147.583,114.756 148,113.5C 149.866,116.046 149.366,118.213 146.5,120C 146.728,120.399 147.062,120.565 147.5,120.5C 147.5,120.833 147.5,121.167 147.5,121.5C 145.908,122.602 145.075,121.935 145,119.5C 142.832,120.629 142.332,122.129 143.5,124C 142.572,124.388 141.905,125.055 141.5,126C 141.422,128.048 141.589,130.215 142,132.5C 140.333,131.5 138.667,130.5 137,129.5C 136.517,130.448 136.351,131.448 136.5,132.5C 134.655,129.545 134.655,126.711 136.5,124C 132.407,122.914 132.741,121.247 137.5,119C 135.21,118.21 134.877,116.876 136.5,115C 136,113.5 135.5,112 135,110.5C 134.802,112.382 134.302,114.048 133.5,115.5C 132.761,115.631 132.094,115.464 131.5,115C 134.21,113.332 134.043,112.499 131,112.5C 128.783,113.218 126.616,113.718 124.5,114C 128.257,112.628 130.924,110.128 132.5,106.5C 133.82,108.27 135.32,108.603 137,107.5C 136.343,111.513 137.676,114.846 141,117.5C 142.654,117.794 144.154,117.127 145.5,115.5 Z"/></g>
<g><path style="opacity:1" fill="#51402f" d="M 167.5,56.5 C 168.833,56.5 170.167,56.5 171.5,56.5C 171.5,104.167 171.5,151.833 171.5,199.5C 160.5,199.5 149.5,199.5 138.5,199.5C 139.089,197.648 139.756,195.815 140.5,194C 139.158,191.985 138.658,189.818 139,187.5C 139.914,189.664 141.081,191.664 142.5,193.5C 142.88,191.979 143.046,190.313 143,188.5C 144.666,189.34 144.833,188.84 143.5,187C 145.353,186.449 146.687,187.115 147.5,189C 146.483,190.049 146.316,191.216 147,192.5C 148.425,193.212 149.925,193.379 151.5,193C 153.174,194.506 154.174,196.339 154.5,198.5C 155.552,198.649 156.552,198.483 157.5,198C 156.217,195.205 156.217,192.372 157.5,189.5C 159.024,190.527 159.691,192.027 159.5,194C 157.943,197.083 158.61,198.583 161.5,198.5C 161.708,196.08 161.374,193.747 160.5,191.5C 160.938,190.494 161.604,190.494 162.5,191.5C 163.281,190.271 163.781,188.938 164,187.5C 165.316,190.028 166.483,190.028 167.5,187.5C 166.833,186.833 166.167,186.167 165.5,185.5C 166.602,184.824 167.602,184.158 168.5,183.5C 169.222,183.918 169.722,184.584 170,185.5C 170.667,174.167 170.667,162.833 170,151.5C 168.244,149.941 168.244,148.274 170,146.5C 170.667,138.833 170.667,131.167 170,123.5C 169.781,124.938 169.281,126.271 168.5,127.5C 167.386,124.844 167.386,122.177 168.5,119.5C 169.117,119.389 169.617,119.056 170,118.5C 170.5,104.504 170.667,90.504 170.5,76.5C 170.666,70.1579 170.5,63.8246 170,57.5C 169.303,67.7715 168.47,67.4382 167.5,56.5 Z"/></g>
<g><path style="opacity:1" fill="#634c37" d="M 168.5,119.5 C 166.202,121.392 165.535,123.725 166.5,126.5C 165.826,128.195 165.159,129.862 164.5,131.5C 162.926,131.063 161.759,130.063 161,128.5C 160.536,129.094 160.369,129.761 160.5,130.5C 159.206,131.29 158.039,132.29 157,133.5C 156.993,130.521 157.327,127.521 158,124.5C 158.974,126.878 159.641,126.544 160,123.5C 160.333,124.833 160.667,126.167 161,127.5C 161.133,125.583 161.966,123.75 163.5,122C 162.352,120.274 161.185,120.441 160,122.5C 159.283,121.956 158.783,121.289 158.5,120.5C 158.993,118.194 159.326,115.861 159.5,113.5C 160.588,110.986 161.922,108.653 163.5,106.5C 164.5,106.833 165.167,107.5 165.5,108.5C 164.848,110.917 165.348,113.25 167,115.5C 167.805,112.304 167.638,109.304 166.5,106.5C 167.687,105.466 168.52,104.133 169,102.5C 169.74,108.218 169.573,113.885 168.5,119.5 Z"/></g>
<g><path style="opacity:1" fill="#5d4631" d="M 130.5,124.5 C 130.011,125.995 129.345,127.329 128.5,128.5C 127.5,128.5 126.5,128.5 125.5,128.5C 125.509,130.308 125.009,131.975 124,133.5C 124.827,131.086 124.66,129.086 123.5,127.5C 122.702,129.078 122.202,130.744 122,132.5C 120.933,131.809 119.766,131.309 118.5,131C 119.624,130.751 120.624,130.251 121.5,129.5C 121.333,129.167 121.167,128.833 121,128.5C 118.025,128.465 115.192,128.798 112.5,129.5C 114.675,127.583 117.342,126.25 120.5,125.5C 120.291,124.914 119.957,124.414 119.5,124C 123.424,121.922 124.091,122.589 121.5,126C 122.167,126.167 122.833,126.333 123.5,126.5C 125.577,125.063 127.91,124.396 130.5,124.5 Z"/></g>
<g><path style="opacity:1" fill="#432e1d" d="M 147.5,121.5 C 148.097,121.735 148.43,122.235 148.5,123C 148.108,124.011 147.441,124.511 146.5,124.5C 146.646,126.315 146.812,128.315 147,130.5C 143.641,133.883 141.307,137.883 140,142.5C 138.981,143.687 137.814,144.687 136.5,145.5C 135.571,146.689 135.238,148.022 135.5,149.5C 133.876,149.64 132.71,148.973 132,147.5C 131.03,150.821 128.863,152.487 125.5,152.5C 127.968,150.359 129.634,147.692 130.5,144.5C 131.675,145.855 132.675,145.688 133.5,144C 132.584,143.722 131.918,143.222 131.5,142.5C 132.847,141.829 134.014,141.829 135,142.5C 138.495,139.339 138.995,136.006 136.5,132.5C 136.351,131.448 136.517,130.448 137,129.5C 138.667,130.5 140.333,131.5 142,132.5C 141.589,130.215 141.422,128.048 141.5,126C 141.905,125.055 142.572,124.388 143.5,124C 142.332,122.129 142.832,120.629 145,119.5C 145.075,121.935 145.908,122.602 147.5,121.5 Z"/></g>
<g><path style="opacity:1" fill="#786048" d="M 128.5,128.5 C 128.082,131.439 126.582,133.772 124,135.5C 122.687,134.713 121.52,135.046 120.5,136.5C 118.508,136.328 116.842,136.995 115.5,138.5C 114.294,136.516 114.294,134.516 115.5,132.5C 114.23,131.712 113.23,130.712 112.5,129.5C 115.192,128.798 118.025,128.465 121,128.5C 121.167,128.833 121.333,129.167 121.5,129.5C 120.624,130.251 119.624,130.751 118.5,131C 119.766,131.309 120.933,131.809 122,132.5C 122.202,130.744 122.702,129.078 123.5,127.5C 124.66,129.086 124.827,131.086 124,133.5C 125.009,131.975 125.509,130.308 125.5,128.5C 126.5,128.5 127.5,128.5 128.5,128.5 Z"/></g>
<g><path style="opacity:1" fill="#412c1c" d="M 158.5,120.5 C 158.783,121.289 159.283,121.956 160,122.5C 161.185,120.441 162.352,120.274 163.5,122C 161.966,123.75 161.133,125.583 161,127.5C 160.667,126.167 160.333,124.833 160,123.5C 159.641,126.544 158.974,126.878 158,124.5C 157.327,127.521 156.993,130.521 157,133.5C 158.039,132.29 159.206,131.29 160.5,130.5C 158.386,137.616 154.053,142.949 147.5,146.5C 146.949,143.763 145.949,141.096 144.5,138.5C 144.71,134.62 146.71,132.953 150.5,133.5C 150.268,129.543 151.101,125.876 153,122.5C 154.361,119.882 156.194,119.215 158.5,120.5 Z"/></g>
<g><path style="opacity:1" fill="#634d39" d="M 136.5,132.5 C 138.995,136.006 138.495,139.339 135,142.5C 134.014,141.829 132.847,141.829 131.5,142.5C 131.319,139.239 132.486,136.239 135,133.5C 134.923,134.738 135.089,135.738 135.5,136.5C 136.429,135.311 136.762,133.978 136.5,132.5 Z"/></g>
<g><path style="opacity:1" fill="#5a432f" d="M 164.5,131.5 C 169.581,132.21 170.748,134.876 168,139.5C 167.329,140.252 166.496,140.586 165.5,140.5C 165.062,140.565 164.728,140.399 164.5,140C 165.5,139 166.5,138 167.5,137C 165.249,137.207 162.915,137.373 160.5,137.5C 160.657,134.682 161.991,132.682 164.5,131.5 Z"/></g>
<g><path style="opacity:1" fill="#3b2416" d="M 165.5,140.5 C 164.694,141.728 163.694,142.728 162.5,143.5C 160.91,143.372 159.577,142.705 158.5,141.5C 159.63,140.378 160.297,139.044 160.5,137.5C 162.915,137.373 165.249,137.207 167.5,137C 166.5,138 165.5,139 164.5,140C 164.728,140.399 165.062,140.565 165.5,140.5 Z"/></g>
<g><path style="opacity:1" fill="#56402c" d="M 79.5,115.5 C 78.1539,122.848 78.3206,130.181 80,137.5C 80.2004,135.68 81.0337,134.347 82.5,133.5C 83.8235,134.85 84.8235,134.683 85.5,133C 86.0441,130.6 86.7108,128.267 87.5,126C 86.9558,125.283 86.2891,124.783 85.5,124.5C 85.9321,123.29 86.5987,122.29 87.5,121.5C 87.369,122.239 87.5357,122.906 88,123.5C 89.0726,121.453 90.2393,119.453 91.5,117.5C 92.1835,117.863 92.8501,118.196 93.5,118.5C 90.568,123.973 88.2347,129.64 86.5,135.5C 82.8364,137.013 81.8364,139.513 83.5,143C 82.1885,145.48 81.1885,147.98 80.5,150.5C 80.6495,149.448 80.4828,148.448 80,147.5C 79.6667,147.833 79.3333,148.167 79,148.5C 78.9176,159.071 78.0843,169.571 76.5,180C 78.3607,185.359 79.1941,190.859 79,196.5C 78.6667,195.167 78.3333,193.833 78,192.5C 77.5045,194.473 77.3379,196.473 77.5,198.5C 79.8333,198.5 82.1667,198.5 84.5,198.5C 84.849,194.837 84.1823,192.17 82.5,190.5C 82.5195,189.274 82.8529,188.274 83.5,187.5C 87.324,191.09 87.9906,195.09 85.5,199.5C 82.5,199.5 79.5,199.5 76.5,199.5C 75.0908,189.445 75.2575,179.445 77,169.5C 77.3936,155.601 77.5602,141.767 77.5,128C 75.4354,124.471 75.4354,120.804 77.5,117C 75.9786,110.743 76.6453,110.243 79.5,115.5 Z"/></g>
<g><path style="opacity:1" fill="#331c0f" d="M 85.5,124.5 C 86.2891,124.783 86.9558,125.283 87.5,126C 86.7108,128.267 86.0441,130.6 85.5,133C 84.8235,134.683 83.8235,134.85 82.5,133.5C 81.9238,129.888 82.9238,126.888 85.5,124.5 Z"/></g>
<g><path style="opacity:1" fill="#8b7258" d="M 164.5,131.5 C 161.991,132.682 160.657,134.682 160.5,137.5C 160.297,139.044 159.63,140.378 158.5,141.5C 159.577,142.705 160.91,143.372 162.5,143.5C 162.217,144.289 161.717,144.956 161,145.5C 159.867,143.789 158.367,143.289 156.5,144C 154.34,145.332 152.34,146.832 150.5,148.5C 148.956,148.703 147.622,149.37 146.5,150.5C 145.537,150.03 145.537,149.363 146.5,148.5C 146.833,147.833 147.167,147.167 147.5,146.5C 154.053,142.949 158.386,137.616 160.5,130.5C 160.369,129.761 160.536,129.094 161,128.5C 161.759,130.063 162.926,131.063 164.5,131.5 Z"/></g>
<g><path style="opacity:1" fill="#47301f" d="M 158.5,151.5 C 157.883,151.389 157.383,151.056 157,150.5C 155.933,152.283 154.433,152.783 152.5,152C 151.027,151.29 150.36,150.124 150.5,148.5C 152.34,146.832 154.34,145.332 156.5,144C 158.367,143.289 159.867,143.789 161,145.5C 161.717,144.956 162.217,144.289 162.5,143.5C 165.396,144.644 167.563,143.644 169,140.5C 169.167,140.833 169.333,141.167 169.5,141.5C 168.412,143.965 166.579,145.631 164,146.5C 163.94,149.79 162.607,150.79 160,149.5C 158.97,149.836 158.47,150.503 158.5,151.5 Z"/></g>
<g><path style="opacity:1" fill="#68513b" d="M 112.5,129.5 C 113.23,130.712 114.23,131.712 115.5,132.5C 114.294,134.516 114.294,136.516 115.5,138.5C 116.842,136.995 118.508,136.328 120.5,136.5C 121.833,136.5 123.167,136.5 124.5,136.5C 123.01,142.149 120.01,146.816 115.5,150.5C 113.606,151.048 111.94,152.048 110.5,153.5C 109.808,152.975 109.308,152.308 109,151.5C 106.667,153.833 104.333,156.167 102,158.5C 100.915,157.707 99.7481,157.04 98.5,156.5C 97.084,158.139 95.4174,158.973 93.5,159C 95,157.5 96.5,156 98,154.5C 100.136,155.03 101.97,154.197 103.5,152C 100.651,151.752 97.9848,150.585 95.5,148.5C 97.1992,148.66 98.8659,148.494 100.5,148C 102.125,147.147 102.458,146.147 101.5,145C 103.5,144.667 105.5,144.333 107.5,144C 108.089,142.127 107.422,140.46 105.5,139C 106.91,138.632 107.91,137.799 108.5,136.5C 106.653,135.17 105.153,135.503 104,137.5C 103.692,136.692 103.192,136.025 102.5,135.5C 99.3011,135.41 96.4678,136.743 94,139.5C 93.3333,138.833 93.3333,138.167 94,137.5C 95.9552,136.547 97.6218,135.213 99,133.5C 100.398,134.051 101.732,134.384 103,134.5C 103.692,133.975 104.192,133.308 104.5,132.5C 103.833,132.167 103.167,131.833 102.5,131.5C 104.917,130.928 107.084,129.928 109,128.5C 110.011,129.337 111.178,129.67 112.5,129.5 Z"/></g>
<g><path style="opacity:1" fill="#56402d" d="M 131.5,142.5 C 131.918,143.222 132.584,143.722 133.5,144C 132.675,145.688 131.675,145.855 130.5,144.5C 129.634,147.692 127.968,150.359 125.5,152.5C 124.653,153.966 123.32,154.8 121.5,155C 120.695,156.113 120.028,157.279 119.5,158.5C 119.5,159.167 119.5,159.833 119.5,160.5C 113.426,160.674 113.093,161.674 118.5,163.5C 117.167,163.5 115.833,163.5 114.5,163.5C 113.5,163.5 112.5,163.5 111.5,163.5C 112.108,162.2 112.775,160.867 113.5,159.5C 112.608,158.631 112.108,157.631 112,156.5C 114.779,153.045 118.112,150.379 122,148.5C 123.084,143.666 125.25,139.332 128.5,135.5C 129.365,134.417 130.365,134.251 131.5,135C 130.313,136.019 129.313,137.186 128.5,138.5C 129.833,139.5 129.833,140.5 128.5,141.5C 129.325,142.386 130.325,142.719 131.5,142.5 Z"/></g>
<g><path style="opacity:1" fill="#321c0e" d="M 154.5,111.5 C 155.161,112.718 155.828,114.051 156.5,115.5C 157.518,114.807 158.518,114.141 159.5,113.5C 159.326,115.861 158.993,118.194 158.5,120.5C 156.194,119.215 154.361,119.882 153,122.5C 151.101,125.876 150.268,129.543 150.5,133.5C 146.71,132.953 144.71,134.62 144.5,138.5C 145.949,141.096 146.949,143.763 147.5,146.5C 147.167,147.167 146.833,147.833 146.5,148.5C 142.091,149.203 138.424,151.203 135.5,154.5C 134.213,155.528 133.046,155.195 132,153.5C 129.632,154.717 127.132,155.551 124.5,156C 123.619,156.708 122.953,157.542 122.5,158.5C 121.5,158.5 120.5,158.5 119.5,158.5C 120.028,157.279 120.695,156.113 121.5,155C 123.32,154.8 124.653,153.966 125.5,152.5C 128.863,152.487 131.03,150.821 132,147.5C 132.71,148.973 133.876,149.64 135.5,149.5C 135.238,148.022 135.571,146.689 136.5,145.5C 137.814,144.687 138.981,143.687 140,142.5C 141.307,137.883 143.641,133.883 147,130.5C 146.812,128.315 146.646,126.315 146.5,124.5C 147.441,124.511 148.108,124.011 148.5,123C 148.43,122.235 148.097,121.735 147.5,121.5C 147.5,121.167 147.5,120.833 147.5,120.5C 150.873,118.27 153.207,115.27 154.5,111.5 Z"/></g>
<g><path style="opacity:1" fill="#775f47" d="M 168.5,119.5 C 167.386,122.177 167.386,124.844 168.5,127.5C 169.281,126.271 169.781,124.938 170,123.5C 170.667,131.167 170.667,138.833 170,146.5C 168.244,148.274 168.244,149.941 170,151.5C 170.667,162.833 170.667,174.167 170,185.5C 169.722,184.584 169.222,183.918 168.5,183.5C 168.414,182.504 168.748,181.671 169.5,181C 167.352,178.628 166.018,175.794 165.5,172.5C 165.846,171.304 166.346,171.304 167,172.5C 168.043,167.161 168.71,161.828 169,156.5C 168,157.833 167,157.833 166,156.5C 166.218,158.587 166.051,160.587 165.5,162.5C 162.25,160.287 161.917,157.787 164.5,155C 163.366,153.984 163.699,153.317 165.5,153C 163.141,151.463 160.808,150.963 158.5,151.5C 158.47,150.503 158.97,149.836 160,149.5C 162.607,150.79 163.94,149.79 164,146.5C 166.579,145.631 168.412,143.965 169.5,141.5C 169.333,141.167 169.167,140.833 169,140.5C 167.563,143.644 165.396,144.644 162.5,143.5C 163.694,142.728 164.694,141.728 165.5,140.5C 166.496,140.586 167.329,140.252 168,139.5C 170.748,134.876 169.581,132.21 164.5,131.5C 165.159,129.862 165.826,128.195 166.5,126.5C 165.535,123.725 166.202,121.392 168.5,119.5 Z"/></g>
<g><path style="opacity:1" fill="#483121" d="M 135.5,154.5 C 135.5,155.833 135.5,157.167 135.5,158.5C 138.518,158.335 141.518,158.502 144.5,159C 145.694,161.658 144.694,162.824 141.5,162.5C 140.048,161.698 138.382,161.198 136.5,161C 137.888,160.111 137.722,159.611 136,159.5C 134.043,160.884 133.043,160.217 133,157.5C 132.205,160.115 130.705,162.115 128.5,163.5C 127.287,163.253 126.62,162.586 126.5,161.5C 127.461,160.783 128.461,159.617 129.5,158C 129.167,157.667 128.833,157.333 128.5,157C 126.311,156.678 124.311,157.178 122.5,158.5C 122.953,157.542 123.619,156.708 124.5,156C 127.132,155.551 129.632,154.717 132,153.5C 133.046,155.195 134.213,155.528 135.5,154.5 Z"/></g>
<g><path style="opacity:1" fill="#806a51" d="M 86.5,144.5 C 86.8333,144.5 87.1667,144.5 87.5,144.5C 88.6883,145.364 89.8549,146.364 91,147.5C 91.4828,146.552 91.6495,145.552 91.5,144.5C 93.7834,144.608 95.7834,145.441 97.5,147C 95.6573,147.159 94.9907,147.659 95.5,148.5C 97.9848,150.585 100.651,151.752 103.5,152C 101.97,154.197 100.136,155.03 98,154.5C 96.5,156 95,157.5 93.5,159C 95.4174,158.973 97.084,158.139 98.5,156.5C 99.7481,157.04 100.915,157.707 102,158.5C 104.333,156.167 106.667,153.833 109,151.5C 109.308,152.308 109.808,152.975 110.5,153.5C 111.94,152.048 113.606,151.048 115.5,150.5C 105.5,160.167 95.5,169.833 85.5,179.5C 84.5084,179.328 83.8417,179.662 83.5,180.5C 82.6566,178.18 82.6566,176.013 83.5,174C 84.1667,173.333 84.8333,172.667 85.5,172C 82.372,168.86 82.0387,165.527 84.5,162C 81.967,160.084 81.967,158.084 84.5,156C 83.0527,151.852 83.7193,148.019 86.5,144.5 Z"/></g>
<g><path style="opacity:1" fill="#b1997c" d="M 119.5,160.5 C 123.06,160.717 123.06,161.717 119.5,163.5C 119.167,163.5 118.833,163.5 118.5,163.5C 113.093,161.674 113.426,160.674 119.5,160.5 Z"/></g>
<g><path style="opacity:1" fill="#735d45" d="M 146.5,148.5 C 145.537,149.363 145.537,150.03 146.5,150.5C 147.622,149.37 148.956,148.703 150.5,148.5C 150.36,150.124 151.027,151.29 152.5,152C 154.433,152.783 155.933,152.283 157,150.5C 157.383,151.056 157.883,151.389 158.5,151.5C 158.047,152.458 157.381,153.292 156.5,154C 156.833,154.333 157.167,154.667 157.5,155C 152.548,154.044 151.381,155.877 154,160.5C 156.685,161.684 158.852,163.517 160.5,166C 159.376,166.249 158.376,166.749 157.5,167.5C 157.846,168.696 158.346,168.696 159,167.5C 159.667,169.5 159.667,171.5 159,173.5C 157.274,175.228 155.941,177.228 155,179.5C 153.461,178.454 153.295,177.121 154.5,175.5C 153.511,174.74 152.845,173.573 152.5,172C 152.484,169.695 153.484,168.028 155.5,167C 154.956,166.283 154.289,165.783 153.5,165.5C 153.167,164.833 152.833,164.167 152.5,163.5C 150.906,163.08 149.406,162.414 148,161.5C 146.269,162.741 144.436,163.741 142.5,164.5C 142.167,163.833 141.833,163.167 141.5,162.5C 144.694,162.824 145.694,161.658 144.5,159C 141.518,158.502 138.518,158.335 135.5,158.5C 135.5,157.167 135.5,155.833 135.5,154.5C 138.424,151.203 142.091,149.203 146.5,148.5 Z"/></g>
<g><path style="opacity:1" fill="#4d3624" d="M 149.5,156.5 C 151.235,158.906 153.235,161.24 155.5,163.5C 154.767,164.087 153.767,164.087 152.5,163.5C 150.688,161.539 149.688,159.206 149.5,156.5 Z"/></g>
<g><path style="opacity:1" fill="#382213" d="M 149.5,156.5 C 146.817,158.094 144.484,157.761 142.5,155.5C 144.51,153.829 146.843,153.162 149.5,153.5C 149.5,154.5 149.5,155.5 149.5,156.5 Z"/></g>
<g><path style="opacity:1" fill="#493321" d="M 152.5,163.5 C 152.833,164.167 153.167,164.833 153.5,165.5C 151.955,166.23 151.122,167.563 151,169.5C 150.581,165.148 149.914,164.815 149,168.5C 148.28,166.888 148.446,165.388 149.5,164C 146.678,163.301 145.012,164.468 144.5,167.5C 145.5,167.5 146.5,167.5 147.5,167.5C 145.1,169.296 143.433,171.63 142.5,174.5C 141.314,175.961 141.314,177.295 142.5,178.5C 143.11,179.391 143.443,180.391 143.5,181.5C 141.348,182.077 141.015,183.244 142.5,185C 140.433,184.442 138.433,184.942 136.5,186.5C 136.632,183.43 136.299,180.43 135.5,177.5C 136.5,177.5 137.5,177.5 138.5,177.5C 138.343,178.873 138.51,180.207 139,181.5C 139.333,181.167 139.667,180.833 140,180.5C 139.681,178.257 139.848,176.09 140.5,174C 137.944,172.945 136.277,171.112 135.5,168.5C 135.354,166.058 136.187,165.391 138,166.5C 138.698,163.589 140.198,162.923 142.5,164.5C 144.436,163.741 146.269,162.741 148,161.5C 149.406,162.414 150.906,163.08 152.5,163.5 Z"/></g>
<g><path style="opacity:1" fill="#765f48" d="M 126.5,161.5 C 124.1,160.073 123.433,160.573 124.5,163C 121.786,164.573 120.953,166.74 122,169.5C 118.667,173.5 115.333,177.5 112,181.5C 111.362,180.391 110.862,179.225 110.5,178C 111.609,175.953 112.276,173.787 112.5,171.5C 110.843,168.911 110.509,166.244 111.5,163.5C 112.5,163.5 113.5,163.5 114.5,163.5C 114.215,165.288 114.548,166.955 115.5,168.5C 116.857,166.814 118.19,165.148 119.5,163.5C 123.06,161.717 123.06,160.717 119.5,160.5C 119.5,159.833 119.5,159.167 119.5,158.5C 120.5,158.5 121.5,158.5 122.5,158.5C 124.311,157.178 126.311,156.678 128.5,157C 128.833,157.333 129.167,157.667 129.5,158C 128.461,159.617 127.461,160.783 126.5,161.5 Z"/></g>
<g><path style="opacity:1" fill="#372213" d="M 114.5,163.5 C 115.833,163.5 117.167,163.5 118.5,163.5C 118.833,163.5 119.167,163.5 119.5,163.5C 118.19,165.148 116.857,166.814 115.5,168.5C 114.548,166.955 114.215,165.288 114.5,163.5 Z"/></g>
<g><path style="opacity:1" fill="#392214" d="M 86.5,135.5 C 87.0946,138.346 87.0946,141.346 86.5,144.5C 83.7193,148.019 83.0527,151.852 84.5,156C 81.967,158.084 81.967,160.084 84.5,162C 82.0387,165.527 82.372,168.86 85.5,172C 84.8333,172.667 84.1667,173.333 83.5,174C 82.6566,176.013 82.6566,178.18 83.5,180.5C 82.8153,182.414 82.3153,184.414 82,186.5C 79.8974,184.409 78.7307,181.909 78.5,179C 79.7086,174.375 80.7086,169.709 81.5,165C 81.5191,161.995 80.8525,159.162 79.5,156.5C 80.1556,154.547 80.4889,152.547 80.5,150.5C 81.1885,147.98 82.1885,145.48 83.5,143C 81.8364,139.513 82.8364,137.013 86.5,135.5 Z"/></g>
<g><path style="opacity:1" fill="#816951" d="M 135.5,168.5 C 136.277,171.112 137.944,172.945 140.5,174C 139.848,176.09 139.681,178.257 140,180.5C 139.667,180.833 139.333,181.167 139,181.5C 138.51,180.207 138.343,178.873 138.5,177.5C 137.5,177.5 136.5,177.5 135.5,177.5C 136.4,174.903 135.733,172.569 133.5,170.5C 133.855,169.478 134.522,168.811 135.5,168.5 Z"/></g>
<g><path style="opacity:1" fill="#816a52" d="M 142.5,178.5 C 141.314,177.295 141.314,175.961 142.5,174.5C 145.033,173.882 147.699,174.048 150.5,175C 149.5,175.333 148.5,175.667 147.5,176C 148.364,177.137 149.364,178.47 150.5,180C 149.5,180.5 148.5,181 147.5,181.5C 145.799,180.446 144.132,179.446 142.5,178.5 Z"/></g>
<g><path style="opacity:1" fill="#58412e" d="M 168.5,183.5 C 163.428,181.32 160.595,183.32 160,189.5C 157.986,187.817 156.32,185.817 155,183.5C 154.667,184.167 154.333,184.833 154,185.5C 152.89,183.963 151.39,183.297 149.5,183.5C 149.662,185.527 149.495,187.527 149,189.5C 148.691,188.234 148.191,187.067 147.5,186C 147.833,185.667 148.167,185.333 148.5,185C 147.211,183.198 145.544,182.031 143.5,181.5C 143.443,180.391 143.11,179.391 142.5,178.5C 144.132,179.446 145.799,180.446 147.5,181.5C 148.5,181 149.5,180.5 150.5,180C 149.364,178.47 148.364,177.137 147.5,176C 148.5,175.667 149.5,175.333 150.5,175C 147.699,174.048 145.033,173.882 142.5,174.5C 143.433,171.63 145.1,169.296 147.5,167.5C 146.5,167.5 145.5,167.5 144.5,167.5C 145.012,164.468 146.678,163.301 149.5,164C 148.446,165.388 148.28,166.888 149,168.5C 149.914,164.815 150.581,165.148 151,169.5C 151.122,167.563 151.955,166.23 153.5,165.5C 154.289,165.783 154.956,166.283 155.5,167C 153.484,168.028 152.484,169.695 152.5,172C 152.845,173.573 153.511,174.74 154.5,175.5C 153.295,177.121 153.461,178.454 155,179.5C 155.941,177.228 157.274,175.228 159,173.5C 159.667,171.5 159.667,169.5 159,167.5C 158.346,168.696 157.846,168.696 157.5,167.5C 158.376,166.749 159.376,166.249 160.5,166C 158.852,163.517 156.685,161.684 154,160.5C 151.381,155.877 152.548,154.044 157.5,155C 157.167,154.667 156.833,154.333 156.5,154C 157.381,153.292 158.047,152.458 158.5,151.5C 160.808,150.963 163.141,151.463 165.5,153C 163.699,153.317 163.366,153.984 164.5,155C 161.917,157.787 162.25,160.287 165.5,162.5C 166.051,160.587 166.218,158.587 166,156.5C 167,157.833 168,157.833 169,156.5C 168.71,161.828 168.043,167.161 167,172.5C 166.346,171.304 165.846,171.304 165.5,172.5C 166.018,175.794 167.352,178.628 169.5,181C 168.748,181.671 168.414,182.504 168.5,183.5 Z"/></g>
<g><path style="opacity:1" fill="#705a43" d="M 143.5,181.5 C 145.544,182.031 147.211,183.198 148.5,185C 148.167,185.333 147.833,185.667 147.5,186C 148.191,187.067 148.691,188.234 149,189.5C 149.495,187.527 149.662,185.527 149.5,183.5C 151.39,183.297 152.89,183.963 154,185.5C 154.333,184.833 154.667,184.167 155,183.5C 156.32,185.817 157.986,187.817 160,189.5C 160.595,183.32 163.428,181.32 168.5,183.5C 167.602,184.158 166.602,184.824 165.5,185.5C 166.167,186.167 166.833,186.833 167.5,187.5C 166.483,190.028 165.316,190.028 164,187.5C 163.781,188.938 163.281,190.271 162.5,191.5C 161.604,190.494 160.938,190.494 160.5,191.5C 161.374,193.747 161.708,196.08 161.5,198.5C 158.61,198.583 157.943,197.083 159.5,194C 159.691,192.027 159.024,190.527 157.5,189.5C 156.217,192.372 156.217,195.205 157.5,198C 156.552,198.483 155.552,198.649 154.5,198.5C 154.174,196.339 153.174,194.506 151.5,193C 149.925,193.379 148.425,193.212 147,192.5C 146.316,191.216 146.483,190.049 147.5,189C 146.687,187.115 145.353,186.449 143.5,187C 144.833,188.84 144.666,189.34 143,188.5C 143.046,190.313 142.88,191.979 142.5,193.5C 141.081,191.664 139.914,189.664 139,187.5C 138.658,189.818 139.158,191.985 140.5,194C 139.756,195.815 139.089,197.648 138.5,199.5C 138.167,199.5 137.833,199.5 137.5,199.5C 136.193,198.198 136.193,196.865 137.5,195.5C 136.397,195.002 135.397,194.669 134.5,194.5C 135.482,191.904 136.149,189.238 136.5,186.5C 138.433,184.942 140.433,184.442 142.5,185C 141.015,183.244 141.348,182.077 143.5,181.5 Z"/></g>
<g><path style="opacity:1" fill="#755e47" d="M 89.5,199.5 C 88.1667,199.5 86.8333,199.5 85.5,199.5C 87.9906,195.09 87.324,191.09 83.5,187.5C 83.3433,186.127 83.51,184.793 84,183.5C 84.3333,184.167 84.6667,184.833 85,185.5C 85.2321,184.263 85.7321,183.263 86.5,182.5C 88.4085,182.117 89.9085,181.117 91,179.5C 91.9145,183.185 92.5811,182.852 93,178.5C 94.016,177.366 94.6827,177.699 95,179.5C 95.346,177.782 95.846,176.115 96.5,174.5C 100.215,170.95 103.382,166.95 106,162.5C 106.461,166.823 105.294,170.656 102.5,174C 102.161,180.714 100.328,187.214 97,193.5C 96.6667,193.167 96.3333,192.833 96,192.5C 94.2858,196.221 91.9525,196.887 89,194.5C 89.0187,196.107 89.1854,197.774 89.5,199.5 Z"/></g>
<g><path style="opacity:1" fill="#412b1b" d="M 136.5,132.5 C 136.762,133.978 136.429,135.311 135.5,136.5C 135.089,135.738 134.923,134.738 135,133.5C 132.486,136.239 131.319,139.239 131.5,142.5C 130.325,142.719 129.325,142.386 128.5,141.5C 129.833,140.5 129.833,139.5 128.5,138.5C 129.313,137.186 130.313,136.019 131.5,135C 130.365,134.251 129.365,134.417 128.5,135.5C 125.25,139.332 123.084,143.666 122,148.5C 118.112,150.379 114.779,153.045 112,156.5C 112.108,157.631 112.608,158.631 113.5,159.5C 112.775,160.867 112.108,162.2 111.5,163.5C 110.509,166.244 110.843,168.911 112.5,171.5C 111.542,171.953 110.708,172.619 110,173.5C 110.721,180.535 108.721,186.535 104,191.5C 102.921,194.063 102.421,196.729 102.5,199.5C 98.1667,199.5 93.8333,199.5 89.5,199.5C 89.1854,197.774 89.0187,196.107 89,194.5C 91.9525,196.887 94.2858,196.221 96,192.5C 96.3333,192.833 96.6667,193.167 97,193.5C 100.328,187.214 102.161,180.714 102.5,174C 105.294,170.656 106.461,166.823 106,162.5C 103.382,166.95 100.215,170.95 96.5,174.5C 95.846,176.115 95.346,177.782 95,179.5C 94.6827,177.699 94.016,177.366 93,178.5C 92.5811,182.852 91.9145,183.185 91,179.5C 89.9085,181.117 88.4085,182.117 86.5,182.5C 85.8902,181.609 85.5569,180.609 85.5,179.5C 95.5,169.833 105.5,160.167 115.5,150.5C 120.01,146.816 123.01,142.149 124.5,136.5C 123.167,136.5 121.833,136.5 120.5,136.5C 121.52,135.046 122.687,134.713 124,135.5C 126.582,133.772 128.082,131.439 128.5,128.5C 129.345,127.329 130.011,125.995 130.5,124.5C 130.877,122.742 131.544,121.075 132.5,119.5C 131.567,118.015 131.9,116.682 133.5,115.5C 134.302,114.048 134.802,112.382 135,110.5C 135.5,112 136,113.5 136.5,115C 134.877,116.876 135.21,118.21 137.5,119C 132.741,121.247 132.407,122.914 136.5,124C 134.655,126.711 134.655,129.545 136.5,132.5 Z"/></g>
<g><path style="opacity:1" fill="#654e38" d="M 80.5,150.5 C 80.4889,152.547 80.1556,154.547 79.5,156.5C 80.8525,159.162 81.5191,161.995 81.5,165C 80.7086,169.709 79.7086,174.375 78.5,179C 78.7307,181.909 79.8974,184.409 82,186.5C 82.3153,184.414 82.8153,182.414 83.5,180.5C 83.8417,179.662 84.5084,179.328 85.5,179.5C 85.5569,180.609 85.8902,181.609 86.5,182.5C 85.7321,183.263 85.2321,184.263 85,185.5C 84.6667,184.833 84.3333,184.167 84,183.5C 83.51,184.793 83.3433,186.127 83.5,187.5C 82.8529,188.274 82.5195,189.274 82.5,190.5C 84.1823,192.17 84.849,194.837 84.5,198.5C 82.1667,198.5 79.8333,198.5 77.5,198.5C 77.3379,196.473 77.5045,194.473 78,192.5C 78.3333,193.833 78.6667,195.167 79,196.5C 79.1941,190.859 78.3607,185.359 76.5,180C 78.0843,169.571 78.9176,159.071 79,148.5C 79.3333,148.167 79.6667,147.833 80,147.5C 80.4828,148.448 80.6495,149.448 80.5,150.5 Z"/></g>
<g><path style="opacity:1" fill="#503a28" d="M 141.5,162.5 C 141.833,163.167 142.167,163.833 142.5,164.5C 140.198,162.923 138.698,163.589 138,166.5C 136.187,165.391 135.354,166.058 135.5,168.5C 134.522,168.811 133.855,169.478 133.5,170.5C 135.733,172.569 136.4,174.903 135.5,177.5C 136.299,180.43 136.632,183.43 136.5,186.5C 136.149,189.238 135.482,191.904 134.5,194.5C 135.397,194.669 136.397,195.002 137.5,195.5C 136.193,196.865 136.193,198.198 137.5,199.5C 125.833,199.5 114.167,199.5 102.5,199.5C 102.421,196.729 102.921,194.063 104,191.5C 108.721,186.535 110.721,180.535 110,173.5C 110.708,172.619 111.542,171.953 112.5,171.5C 112.276,173.787 111.609,175.953 110.5,178C 110.862,179.225 111.362,180.391 112,181.5C 115.333,177.5 118.667,173.5 122,169.5C 120.953,166.74 121.786,164.573 124.5,163C 123.433,160.573 124.1,160.073 126.5,161.5C 126.62,162.586 127.287,163.253 128.5,163.5C 130.705,162.115 132.205,160.115 133,157.5C 133.043,160.217 134.043,160.884 136,159.5C 137.722,159.611 137.888,160.111 136.5,161C 138.382,161.198 140.048,161.698 141.5,162.5 Z"/></g>
<g><path style="opacity:1" fill="#6a543f" d="M 118.5,190.5 C 119.363,189.06 119.363,187.726 118.5,186.5C 119.193,185.482 119.859,184.482 120.5,183.5C 122.265,182.206 124.098,181.206 126,180.5C 126.942,186.045 128.275,185.712 130,179.5C 130.893,178.289 131.726,178.289 132.5,179.5C 130.841,183.834 130.008,188.501 130,193.5C 129.667,194.5 129.333,195.5 129,196.5C 128.667,194.5 128.333,192.5 128,190.5C 126.803,193.089 125.803,195.756 125,198.5C 124.667,194.167 124.333,189.833 124,185.5C 121.281,186.637 120.781,188.47 122.5,191C 121.516,199.327 120.182,199.161 118.5,190.5 Z"/></g>
<g><path style="opacity:1" fill="#331c0f" d="M 120.5,183.5 C 119.859,184.482 119.193,185.482 118.5,186.5C 119.363,187.726 119.363,189.06 118.5,190.5C 116.78,192.658 115.947,195.325 116,198.5C 114.443,195.706 114.11,192.706 115,189.5C 115.442,183.945 117.942,179.612 122.5,176.5C 122.833,177 123.167,177.5 123.5,178C 122.152,179.683 121.152,181.517 120.5,183.5 Z"/></g>
<g><path style="opacity:1" fill="#a1a1a1" d="M 109.5,207.5 C 111.924,207.192 114.257,207.526 116.5,208.5C 120.098,218.128 123.598,227.795 127,237.5C 128.419,238.46 129.919,239.293 131.5,240C 125.833,240.667 120.167,240.667 114.5,240C 118.564,239.582 120.064,237.415 119,233.5C 118.163,231.649 117.329,229.816 116.5,228C 112.909,227.211 109.409,227.378 106,228.5C 104.277,231.772 103.777,235.106 104.5,238.5C 105.795,239.098 107.128,239.598 108.5,240C 104.129,240.828 99.7953,240.661 95.5,239.5C 97.7092,238.937 99.2092,237.604 100,235.5C 103.46,226.251 106.627,216.918 109.5,207.5 Z"/></g>
<g><path style="opacity:1" fill="#a8a8a8" d="M 133.5,207.5 C 138.214,207.173 142.88,207.507 147.5,208.5C 146.372,209.262 145.205,209.929 144,210.5C 143.333,219.5 143.333,228.5 144,237.5C 145.205,238.071 146.372,238.738 147.5,239.5C 142.833,240.833 138.167,240.833 133.5,239.5C 134.628,238.738 135.795,238.071 137,237.5C 137.667,228.5 137.667,219.5 137,210.5C 135.271,210.026 134.105,209.026 133.5,207.5 Z"/></g>
<g><path style="opacity:1" fill="#181818" d="M 110.5,215.5 C 111.376,215.369 112.043,215.702 112.5,216.5C 113.305,218.915 114.305,221.249 115.5,223.5C 112.833,224.833 110.167,224.833 107.5,223.5C 108.508,220.805 109.508,218.138 110.5,215.5 Z"/></g>
</svg>
